/* XPM */
static char * xpm = {
"160 120 16 1", "0 c #000000", "1 c #111111", "2 c #222222", "3 c #333333", "4 c #444444", "5 c #555555", "6 c #666666", "7 c #777777", "8 c #888888", "9 c #999999", "A c #aaaaaa"
, "B c #bbbbbb", "C c #cccccc", "D c #dddddd", "E c #eeeeee", "F c #ffffff",
"34344445454545455545555556565656665666653333344434444546665645454545454445454545555656554434445A6878777767676767666666666666665656565556455545454545454544443444",
"4344444454445454545455545555655555656664434343434344446665655444444444444454545455656665434344589887777676767676666666656565656555655555555455545454445444434443",
"343444444444454545455555555655555656566433333334343435666766554444444544454555565656666644333448A878777767676666666666665666565656555545554545454544444444444434",
"434344445444544454555555555565556565656333333333434345656664555444444444545555656666666653333357B998877676666666766665656565655555555555555454545444544444434443",
"3434444544454545454555465555555656555654333333343334465666556644444444455666666666676666543334479978776766666666665666565656555556555555554545454544444444444434",
"4343444444445454545454555555555565656553323332333344566666666654444454556666667676767666643333469998877676766666656665656565656555555555545554545444444444434343",
"3434444444454545454545455545555545555653233333233445566645466755444444566766676667676666553333378988776766666666565666565656555555555555454545454445444444444434",
"4343444444445444545454555455555555555543323232334455556554667675444444657676766666666666653333369877767676766666656665656565656565555455545454545444444443444443",
"3434444445454545454545454545555555555533232323333556566655576777443445576767676656566666653433378877676766666666566656665656555655554555454545454444444444444434",
"2333444444544454545454555454555555655542323233334565566555577776544455667676766665556566654343478787767666666665656565655565555555555555545454544454444454444444",
"1333344445444445454545454555554555555533232323344756565655577777654556677767676666444556663433477777676766666666666656555656565655555555454545454544444444444434",
"3343434444544454545454555455555555555542323332335665556674567776767676767676767665655445654343567676767666766665656565656565556555555555555554545454545454444444",
"3434344445454545454545554555455555555533232323345656566766676776676767676767676666665534563435677767676666666666666656565655565656555555455545444545444444444544",
"4343444444445454545454555455545554545532323233356665556566667776767676767676766565556544454456777676766676766566666565656565556555545555555454545454445444444444",
"3444444445444545454555555555555545454533232323456666565666677777676767777767665555455644454667676767676766666656665656565656565556555655555545454544454444444444",
"4343444454445455545454545555555454444443333233557676656566778787878888989888878778655665557777777676767676667666656566656565656555655555555454545444545444444444",
"343444454445454545455555555545443444444323333567788AACDEFFFFFFFFFFFFFFFFFFFFFFFFFFFFFFFFFFFFFFDDCBAA988877776766665656565656565556555555555545454545454445454444",
"43434444544454445455555555555444434444433467BEFFFFFFFFFFFFFFFFFFFFFFFFFFFFFFFFFFFFFFFFFFFFFFFFFFFFFFFFFFFFFFFDDCBAA887766665655555555555555454545454544444444444",
"34344445444544454545555555555544344558AFFFFFFFFFFFFFFFFFFFFFFFFFFFFFFFFFFFFFFFFFFFFFFFFFFFFFFFFFFFFFFFFFFFFFFFFFFFFFFFFFEDCCBA9987665655555555454545454444444444",
"4343444444545444545554545455544347DFFFFFFFFFFFFFFFFFFFFFFFFFFFFFFFFFFFFFFFFFFFFFFFFFFFFFFFFFFFFFFFFFFFFFFFFFFFFFFFFFFFFFFEFEEEEDDDDDDBBA988665545454544444444444",
"343434344444444545454555555554344FFFFFFFFFFFFFFFFFFFFFFFFFFFFFFFFFFFFFFFFFFFFFFFFFFFFFFFFFFFFFFFFFFFFFFFFFFFFFFFFFFFFFFFEFEEDEDDDDDDCDCCCCBBBBAA9988654544444544",
"334343444444445454545455556554434EFFFFFFFFFFFFFFFFFFFFFFFFFFFFFFFFFFFFFFFFFFFFFFFFFFFFFFFFFFFFFFFFFFFFFFFFFFFFFFFFFFFFFEFEEEEDDCDCDCDCCCCBCBBBBABAAAA99776545444",
"343434444444444545554555555554344FFFFFFFFFFFFFFFFFFFFFFFFFFFFFFFFFFFFFFFFFFFFFFFFFFFFFFFFFFFFFFFFFFFFFFFFFFFFFFFFFFFEFEEEEDEDDCDCDCCCCCCBCBBBBBBBBABAA99899A5545",
"334344444454445454545555555554434EFFFFFFFFFFFFFFFFFFFFFFFFFFFFFFFFFFFFFFFFFFFFFFFFFFFFFFFFFFFFFFFFFFFFFFFFFFFFFFFFFEFEEEEDEDDDDCCCCBCCCBCBBBBBBBBAAAA99888995444",
"343434444444454545454555555554344FFFFFFFFFFFFFFFFFFFFFFFFFFFFFFFFFFFFFFFFFFFFFFFFFFFFFFFFFFFFFFFFFFFFFFFFFFFFFFFFFEFEEEEDEDDDDCCCCBCBCBCBCBBBBBBAAAAAA9988895545",
"334344444444545454545555655553444EFFFFFFFFFFFFFFFFFFFFFFFFFFFFFFFFFFFFFFFFFFFFFFFFFFFFFFFFFFFFFFFFFFFFFFFFFFFFFEFEEEEEEDEDDDDDDCCCCBCBCBCBBBBBBBBAAAA99888885454",
"343434344444454545455555555544344FFFFFFFFFFFFFFFFFFFFFFFFFFFFFFFFFFFFFFFFFFFFFFFFFFFFFFFFFFFFFFFFFFFFFFFFFFFEFEFEEEEDEDEDEDDCDCCCCBCBCBCBCBBBBBBABAAAA9988884444",
"334343444444545454555555555553444FFFFFFFFFFFFFFFFFFAFFFFFFFFFFFFFFFFFFFFFFFFFFFFFFFFFFFFFFFFFFFFFFFFFFFFFFFFFEFEEEEDCDEDDDDCDCCCCBCBBBCBCBBBBBBBBAAAA9A998873233",
"333434344444444545555555555644444FFFFFFFFFFFFFFFFFF8FFEFFFAFFFFFFFFFFFFFFFFFFFFFFFFFFFFFFFFFFFFFFFFFFFFFFFEFEEEEEEEEDEDDDDDDCDBCCCBCBCBCBBBCBBBBABAAAA9988884568",
"334343434454545454555555556544435FFFFFFFFFFFFFFFFFF7FDFFFFAFFFFFFFFFFFFFFFFFFFFFFFFFFFFFFFFFFFFFFFFFFFFEFFFEEEEEEEEDDDECDCDCDCCBCBCBCBCBCBCBBBBABAAAAAA998885577",
"343444344445444545555555555644454FFFFFFFFFFFFFFFFFF7FDFFFF8FFFFFFFFFFFFFFFFFFFFFFFFFFFFFFFFFFFFFFFFFFFFFEFEEEFEEDEDECDDDCDCDCDCCCCCCBCBBBCBBBBBBABABAA9999785568",
"334343444444445454555455556543435FFFFFFFFFFFFFFFFFF8FDFFFF9FFFFFFFFFFFFFFFFFFFFFFFFFFFFFFFFFFFFFFFFFFEFFFFFEEEEDEDEDDCECDCDCDCCBCCCBCBCBCBCBBBBABABABAA998886579",
"333434344444444545554555555634233FFFFFFFFFFFFFFFFFFAFFFFFF9FFFFFFFFFFFFFFFFFFFFFFFFFFFFFFFFFFFFFFFFFFFEFEFEEEEEEDEDECDDDCDCDDDCCCCBCBCBCBCBBBBABBBABAAAA9988668E",
"334343444444445454545555556542323FFFFFFFFFFFFFFFFFFCFFFFFF9FFFFFFFFFFFFFFFFFFFFFFFFFFFFFFFFFFFFFFFFFFEFEEEFDEDEDEEEDDCDDDDDCCCDBCBCBCBCBCBCBBBBBBBBABAA99988759F",
"333434344444444545554555565523233FFFFFFFFFFFFFFFFFFFFFFFFF9FFFFFFFFFFFFFFFFFFFFFFFFFFFFFFFFFEFFFEFEFEFEFEEEEDEDEDEDEDDDDCDCDCDCCCCBCBCBCBCBBBBBBBBABAAAA99887668",
"334343444344445454545555555322323FFFFFFFFFFFFFFFFFFEFFFFFF9FFFFFFFFFFFFFFFFFFFFFFFFFFFFFFFFFFFFFFFFFFEFEEEEEEEEDEDEDDCDDDDDDCCDCCCCBCBCBCBBBBBBBBBBABAA9A9988555",
"343434344444444545554555565223233FFFFFFFFFFFFFFFFFFCFFFFFF9FFFFFFFFFFFFFFFFFFFFFFFFFFFFFFFFFFFFFEFEFEFEFEEEEDEDEDEDEDCDEDDCDCDCCCCBCCCCCBCBBBCBBBBABAAAA99997656",
"334343444344545454545555554222323FFFFFFFFFFFFFFFFFFAFFFEFFAFFFFFFFFFFFFFFFFFFFFFFFFFFFFFFFFFFFFFEEFFFEFEEDEDEEEDEDEDECDDDDCDDCDBCBCCCBCBCCCBCBBBBABABAAAA9988566",
"333434444444454545555556552222223FFFFFFFFFFFFFFFFFFAEFFEFFBFFFFFFFFFFFFFFFFFFFFFFFFFFFFFFFFFEFFFEFEFEFEFEEEEDEDDDEDEDDDECECDCDCCCCBCCCBCCCCCBCBBBBABABAA9A997656",
"334344444444546566766676632222224FFFFFFFFFFFFFFFFFFAFFFDFFCFFFFFFFFFFFFFFFFFFFFFFFFFFFFFFFFFFEFFEEFEFEFEEEEDEEEDEDEDDDDDDDDDDCDCCCCCCCCBCCCBCBBBBBBBAAAAA9A88566",
"343434454666666666455545322323233FFFFFFFFFFFFFFFFFFDFFFEFF9FFFFFFFFFFFFFFFFFFFFFFFFFFFFFFFFFEFFFEFEFEFEFEEEEDFDDDEDEDCDECDCDCCDCCDCCCCBCCCBCBCBBBBBBABAAAA998666",
"333344555553434444433322222222224FFFFFFFFFFFFFFFFFFFFFFFFFFFFFFFFFFFFFFFFFFFFFFFFFFFFFFFFFFFFEFFEEFEFEFEEDEEEEEDEDEEDCDDDDDDDCDCDCCCCCCCCCCBCBBBBBBABAAAA9A99666",
"343333343444132334222223221223223FFFFFFFFFFFFFFFFFFFFFFFFFFFFFFFFFFFFFFFFFFFFFFFFFFFFFFFFFFFFFFFEFEFFFFFEEEEDFEDDEDEDDDEDDCDDDCCCCCCCDCCCCCCBCBBBBABABABAA9A9757",
"322222334343423232433222222222323FFFFFFFFFFFFFFFFFFFFFFFFFFFFFFFFFFFFFFFFFFFFFFFFFFFFFFFFFFFFFFFFEFEFEFEEEEDEEEDEEEEECDDDDDCDDDCCCCCCCCCCCCBCBBBCBBABABAA9A99766",
"122212232333342212223322222322233FFFFFFFFFFFFFFFFFFFFFFFFFFFFFFFFFFFFFFFFFFFFFFFFFFFFFFFFFFFFFFFEFEFEFEFEEEEEFEEDEEEDEDDCDCDDDCCCDCCCDCCCCBCBCBBBBBBABABAA999867",
"212221222232224122222232222222224FFFFFFFFFFFFFFFFFFFFFFFFFFFFFFFFFFFFFFFFFFFFFFFFFFFFFFFFFFFFFFFFEFEFEFEEDEEEEEDEEEDEDDDDDDDDCDCCCCCCCCCCBCBCBCBCBBBBBBAA9A99876",
"121212122222122422221222222223233FFFFFFFFFFFFFFFFFFFFFFFFFFFFFFFFFFFFFFFFFFFFFFFFFFFFFFFFFFFFFFFEFFFEFEFEFEEDEEEEEEEDDDEDDCDDCCCCDCCCDCCCCCCBCBCBBABBBABAA9A9966",
"112221222221212232212222222222323FFFFFFFFFFFFFFFFFFFFFFFFFFFFFFFFFFFFFFFFFFFFFFFFFFFFFFFFFFFFFFFFEFEFEFFFEEEEEEEEEEEEDDDDDDDDCDCDCCCDCCCDCCCCBCBCBBBBBBAAAA99977",
"111212121222121223221222222223233FFFFFFFFFFFFFFFFFFFFFFFFFFFFFFFFFFFFFFFFFFFFFFFFFFFFFFFFFFFFFFFEFEFEFEFEFEEDFEEEEEEDDDDDDDDDDCDCDCDCDCCCCCCBCBBBCBBBBABAA9A9967",
"211121212121112122222222223232334FFFFFFFFFFFFFFFFFFFFFFFFFFFFFFFFFFFFFFFFFFFFFFFFFFFFFFFFFFFFFFFFEFFFEFEFEFEEEFEFEEDEDEDDCDCDCDCCCCCDCCCDCCBCBCBBBBBBBBAAAA9A977",
"1112121212221212122212233767688ABEEFFFFFFFFFFFFFFFFFFFFFFFFFFFFFFFFFFFFFFFFFFFFFFFFFFFFFFFFFFFFFEFFFEFEFEFEEDFEEEEEEDDDDDDCDDDDDCDCDCCCCCCCCBCBBBCBBBBABAAAA9977",
"212122212122212121222237ABBBCCDDDDEDEEEDDDFFFFFFFFFFFFFFFFFFFFFFFFFFFFFFFFFFFFFFFFFFFFFFFFFFFFFFFEFEFFFEFEFEEEEEEEEDEDDDEDDDDCDDDCCCCCCCDCCCCCCBCBCBBBBAAAA9A977",
"12121222121212121212226ABBBDCDDDDEEEEEDDDDCEFFFFFFFFFFFFFFFFFFFFFFFFFFFFFFFFFFFFFFFFFFFFFFFFFFFFEEEFFFEFEFEFEFEEEEEEEEDEDDDDDDDDCDCDCDCDCCCCBCBCBCBBBBBBAAAA9987",
"21212221212121222122248ACCCCDDEDEDEDEDDDDDDCDFFFFFFFFFFFFFFFFFFFFFFFFFFFFFFFFFFFFFFFFFFFFFFFFFFFFEFEFFFEFEFEFEFEFEEEEDDDEDDDECDDCCDCDCDCCCCCCCCBCBCBBABABAAAA987",
"1212122212121212122226799BBCCDCDCDCCCCBCCDCDCDEFFFFFFFFFFFFFFFFFFFFFFFFFFFFFFFFFFFFFFFFFFFFFFFFFFFFFFFFFFFEFEFEEEEEEEECEDDDDDDDDCDCCCDCDCCCCCCCCBCBBBBBBABAA9A86",
"212121222121222121224688ABCCDDDCDCCCCBBABBDCCCCCFFFFFFFFFFFFFFFFFFFFFFFFFFFFFFFFFFFFFFFFFFFFFFFFFEFFFFFFFFFEFEEEEEEEEDEDEDDCEDDDDDCCDCCCDCDCCCCBCBCBCBBBBABAA985",
"12122222121212121222578BBCBDDEEEEEEFEFEECCBCCCBEDFFFFFFFFFFFFFFFFFFFFFFFFFFFFFFFFFFFFFFFFFFFFFFFEFEFFFEFEFEFEFEEEEEEEEDEDEDEDDDDCDCDCDCDCCCCCCBCBBBBBBBBABAAAA86",
"1111212221212221212367ABCBCCDDEDFEEEFEFEFEEDDCCDDDFFFFFFFFFFFFFFFFFFFFFFFFFFFFFFFFFFFFFFFFFFFFFFFEFFFEFEFEFEEEFEEEEEEEEDECEDDDDCCDCCDCDCDCDCCCCBCBCBCBBABABAA986",
"11011212221212221225689CCDCDDDDEEEEEEEEFEEDDDDBDEDDEFFFFFFFFFFFFFFFFFFFFFFFFFFFFFFFFFFFFFFFFFFFFEFFFFFEFFEEFEEEEDEEEEEEEDDDEDDDDCDCDCDCCCDCCCCBCCCBCBBBBABAA9A87",
"11111122222122212236789ACDDCDDEEEEEEFFFEFEEDDCCBCDECDFFFFFFFFFFFFFFFFFFFFFFFFFFFFFFFFFFFFFFFFFFFFEFFFEFFFEFEEEFEEEEDEEEDEDEDDDDCDCDCDCDCDCDCCCCCCBCBCBBABBBAA987",
"111101122212221212576889ACCDDEDEEFEFEFEFEFEEDDBBABCDBEFFFFFFFFFFFFFFFFFFFFFFFFFFFFFFFFFFFFFFFFFFEFFFFFFFFFEFEFEFEEEEEEEEDEDDDEDDCDCDCDCDCDCCCCCCCCBCBBBBABBA9A87",
"111111212121222123777888AABBDDEDEEEEEEEEEEEDDCCB99BAAFFFFFFFFFFFFFFFFFFFFFFFFFFFFFFFFFFFFFFFFFFFFEFEFFFFFEFEEEFEEEEEEEEEEDEDEDDDDCDCDCDCDCCCCBCCBBCBBBBBBBBAA974",
"1111121212221212257888889AABCCCDCDCDCDCDCDCCBCBB9889BFFFFFFFFFFFFFFFFFFFFFFFFFFFFFFFFFFFFFFFFFFFEFFFFFFFFEEFEEEEDEEEEEDEDDDEDDCDCDCCCDCDCCCCCCCCBCBCBCBBABAB9A74",
"10101121212121223687888899AABABBCBCBCBCBCBBBBABBB68CFFFFFFFFFFFFFFFFFFFFFFFFFFFFFFFFFFFFFFFFFFFFFEFFFFFEFEFEEDFEEEEEEEEDEDDDEDDDCCDCDCDCDCDCCCCCCBCBBBBBBBBAA974",
"010111121212122257788888899A9A9AAAAAAAAAAAABABBBBAEFFFFFFFFFFFFFFFFFFFFFFFFFFFFFFFFFFFFFFFFFFFFFFFFFFFEFFFEFEEEEEFEEEEEEDDDEDDDDCDCDCDCDCCCCCDCCCCBCBBBBBBABAA84",
"101011112121212367888887889898888788999999A9AABBBBDFFFFFFFFFFFFFFFFFFFFFFFFFFFFFFFFFFFFFFFFFFFFFFEFFFFFEFEFFEEEEEEEEEEEDECDDEDDDDCDCDCDCCCCCDCCCCBCBCBCBBBBAAA84",
"010111121212122578887877777877676767787888899AABABBDFFFFFFFFFFFFFFFFFFFFFFFFFFFFFFFFFFFFFFFFFFFFFFEFFFFFEEEFEEEEDEEEEEDEDDDEDDDDCDCDDDCDCCCCCCCCCCBCBCBBBBABAA85",
"1011111121212236778777777776655455666676767799AABAAAEFFFFFFFFFFFFFFFFFFFFFFFFFFFFFFFFFFFFFFFFFFFFEFFFFFEFEEEFEFEEEEEEEEDEDEDEDDCDCDDDCDCDCDCCCCCCCCBCBCBCBBABA94",
"01011102111212577778776877677523345556565667789AAAAABFFFFFFFFFFFFFFFFFFFFFFFFFFFFFFFFFFFFFFFFFFFFFFFFFEFEEEFEEEFDEEEEEEEEDDEDDDDCDCDCDCCCDCCCCCCCCCCBCBBBBABAA95",
"101010111111246677777777777764323355556565666688AAAABFFFFFFFFFFFFFFFFFFFFFFFFFFFFFFFFFFFFFFFFFFFFEFFFEFFFEFEFEFEEEEEEEEEEDEDEDDDDDDCDCDCDCDCDCCBCCCBCBCBCBBBBA94",
"010101011211266767776777787753232456555556676667899AAFFFFFFFFFFFFFFFFFFFFFFFFFFFFFFFFFFFFFFFFFFFEFFFFFEFFEEFEEEFDEEEEEEEDDDEDEDDDDCCCDCDCDCDCDCCCCBCCCBCBBBBAB95",
"1010101111115676767677778775323333555555657676667799BFFFFFFFFFFFFFFFFFFFFFFFFFFFFFFFFFFFFFFFFFFFFEFFFEFFFEFEEEFEEEEEFEEEEDEDEDEDDDDCDCDCDCDCDCDCCCCBCBCBCBBABA94",
"010101111213676767677777675423242456566656677877688BFFFFFFFFFFFFFFFFFFFFFFFFFFFFFFFFFFFFFFFFFFFFEFFFFFFFFEEFEEEFEEEEEEEEDDDEDEDDDDCDCDCDCDCDCDCCCCBCCCBCBBBBAB95",
"1010101111257676767676766543323333656787767677878DFFFFFFFFFFFFFFFFFFFFFFFFFFFFFFFFFFFFFFFFFFFFFFFEFFFFFFFEFEEEFEEEFEEEEEEDEDEDEDDDDCDCDDDDDCDCDCCCCBCBCBCBBABA94",
"0101011212277767676777665433223324579ABBA98878789FFFFFFFFFFFFFFFFFFFFFFFFFFFFFFFFFFFFFFFFFFFFFEFFFFFFFFFEEEFEEEEEEEEEEEEDEEEDEDDDDDDDDCDCDCCCDCCCCBCCCBCBBBBAB95",
"101010112137877776777665533332434589ABCBBBBAA998CFFFFFFFFFFFFFFFFFFFFFFFFFFFFFFFFFFFFFFFFFFFFFFEFEFFFFFFFEFFEEFEEEEEEEEEEDEDEDEDDDDCDDDCDCDCDCCCDCCBCCCBBBBABA94",
"01010112126878777777665654332446899ABCCCBBBCBCCBCEFFFFFFFFFFFFFFFFFFFFFFFFFFFFFFFFFFFFFFFFFFFFEFFEFFFFFFEEEFEEEEDEEFEEEEEDEEDEDDDDDDDDCDCDDCCCCCCCCCCCBCBCBBAB95",
"1010101124888787778766666543479ABAAABBCCCBCCDDDCDCCDEFFFFFFFFFFFFFFFFFFFFFFFFFFFFFFFFFFFFFFFFFFFFEFFFFFEFEFEEEFEEEEEEEEEEDEEEDDDEDEDDCDCDCDCDCCCCCCCCBCBCBBBBAA5",
"01010002377888777877676676467BBCBBAAABABBCBCCDDDCDCDCCCFFFFFFFFFFFFFFFFFFFFFFFFFFFFFFFFFFFFFFFFFEEEFFFFFEFEFDFEEDEEEEEEEDEEEDEDDDDDDDDCDDDCDCDCCCCCCCCBCBCBBBB96",
"101000116787878787877677768BCCCCCBBBBABABBCCDDEDDDDCDCBBFFFFFFFFFFFFFFFFFFFFFFFFFFFFFFFFFFFFFFFFFEFFFFFEFEFEEEEEEEFEEEEEEDEDEDDDDDDCDDDCDCDCDCCCCCCCCCCCCBBBBAA6",
"0101010367787778787877667BFFFDCCBCAAABAABCCCCDDDCDCDCDBBBFFFFFFFFFFFFFFFFFFFFFFFFFFFFFFFFFFFFFFFEEEFFFFFFEEFEEEEDEEEEEEEDEEEEEDDDDDDDDDDDDCDCDCCCCCCCCCCBBABBB97",
"101010136787767777887778AFFFFBBABAA9A9AABBCBCBCCCCCBDCBBBCFFFFFFFFFFFFFFFFFFFFFFFFFFFFFFFFFFFFFFFEFFFEFEFEFEEEEDEEEEEEEDEDEEEDEDEDDDDCDCDCDCDCCCCCCCCBCBCBBBBAA6",
"01000103677776777888799FFFA8FAAAAA9A9A9AABABBCBCBCBCBCBBABCFFFFFFFFFFFFFFFFFFFFFFFFFFFFFFFFFEFFFEFFFFFEFEEEFEEEEDEEEEEEEEEEEEEDDDDDDCDCDCDCCCDCCCCCCBCCCBCBBAA98",
"10101012667677878898AA9FF877C9A999999999A9AAAABABBBBBBBAAABCFFFFFFFFFFFFFFFFFFFFFFFFFFFFFFFFFFFEFEFFFEFEFEFEEEEDEEEEEEEEEDEEEEEDDDDDDDDCDCDCDCCCCCCCCCCBCBBBBAA8",
"01010112576778899AABAA87676788898989898989899A9AAAAAABAAABABBFFFFFFFFFFFFFFFFFFFFFFFFFEFFFFFFFFFEFFFFFFFEEEFEEEEDEEEDEEEDEDEEEDDDDDDDDDDCDCCCDCCCCCCCCBCBBBBABA9",
"10101011556789AABBBAA9986589B8888888877787878788889999A9AABAAAFFFFFFFFFFFFFFFFFFFFFFFFFFFFFFFFFFFEFFFEFFFEFEEEEDEEEEEEEDEDEEEEEDDDDDDDDCDCDCDCCCCCCCCBCBCBBBBAAA",
"0101010125689AABBBAA9999767CDD7888776778788777777877788AAAAB9ADFFFFFFFFFFFFFFFFFFFFFFFEFFFFFFFFFEFFFEFEFFEEFEEEEEEEEDEEEDEDEEEDDDDDDDDCDCDCCCDCCCCBCBCBCBBBBABAB",
"101010101479AABBBAA999988768DFA7777677878787878877877677999AA9BFFFFFFFFFFFFFFFFFFFFFFFFFFFFFFFFEFEFEFEFFFEFEEEEDEEEEEDEEEDEEEDEDDDEDDDDCDCDCDCCCCCCCCCCBBBBABAAA",
"01010101047AABABAAAA999988769FD7665767777878787878777767788A99CFFFFFFFFFFFFFFFFFFFFFEFEFFFFFFFFFEFFFEFFFEFEFDEEEDEEEEEEEDEEEDEDEDDDDDDDDCDCDCDCCCCCCBCBCBBBBAA9A",
"10101010138AAABAAAA9A9989876678653567777878787878777767566789AFFFFFFFFFFFFFFFFFFFFFFFEFFFFFFFFFFFEFFFFFFFEFEEEEDEEEEEEEEEDEEEDEDDDDDDDDCDCDCDCCCCBCCCCCBBBBABA54",
"0101010105899AAAAAAA9A99887655443447677778777878787777666668AEFFFFFFFFFFFFFFFFFFFFFFFFFFFFFFFFFFEEFFEFFFEFEFEEEEEEEFEEEEDEEEDEDDDDDDDDCDCDCDCCCCCCCCCCBCBBBBAA46",
"10101010148899A9A9A99998876554444346767677878787877776655557BEFFFFFFFFFFFFFFFFFFFFFFFFFFFFFFFFFFFEFFFFFEFEFEEEFDEEEDEEEEEEEEEDEDDDDDDDDDDCDCCCCCCCCCCBCBCBBABA55",
"0100010103688999998989887765566744366777777878788877776777678AFFFFFFFFFFFFFFFFFFFFFFEFFFFFFFEFFFEFEFFFEFEFEFDFEEEEEEEEEEDEEEDEDDDDDDDDCDCDCDCDCCCCCCCCBCBBBBAA46",
"10101010115787889898888777778887734677877777989898889898999998CFFFFFFFFFFFFFFFFEFFFFFFFFFFFFFFFFFEFEFFFEFFFEEEFDEEEEEEEEEDEDEDDDDCDDDCDCDDDCDCCCCCCCCBCBCBBABA57",
"0101010101466778898878787878888875477888899A9A9A9A9A9A9A9A9A99AFFFFFFFFFFFFFFFFFFFFFEFEFFFFFEFEFEFFFEFFFEFFFEEEEEEDEEEEEDEDEDEDDDDCDDDCDDDCDCCCCCCCCBCCBBBABAA69",
"101010101024567899999998888777888789AABABBBABAAAAABABAA9A9A999AFFFFFFFFFFFFFFFFFFFFFFFFFFFFFFEFFFEFEFFFEFEFEEEFEFEEEEEEDEDEDEDEDDDDDDCDCDDDCDCCCCBCBCBCBCBBAAA99",
"0001010101144679ABBBBCAA99899BBCCCBBBCBCBBABBA9AABBBAB9A9A9A89DFFFFFFFFFFFFFFFFFFFFFEFEFEFFFEFEFEFEFFFEFEFEFDFEFEFEEEEEEDEDEDEDDDDDDDDCDCDCDCCCCCCBCBCBBBBBBBB99",
"1010101000125689BBCCCCCBCCDCDDDCDCCBCBBBBAAAA9A9AABABAA999A99BFFFFFFFFFFFFFFFFFEFEFEFFFEFFFEFEFEFEFFFEFEFEFEEEFEFEFEFEFEEEEDEDEDEDDDDDDCDCDCDCCCCCCBCBCBCBBABA98",
"000101010002468AACBBBCBCCDCDDDCCBCBBBCBBBB9A9A9A9AAAAA998A9BDFFFFFFFFFFFFFFFFFFFFFEFEFEFFFEFEFEFEFFFFFEFEFEFDFEFEFEFEFEEDEDEDEDEDEDDDDCDCDCDCDCCCCCCBCBBBBABAACA",
"1010101000114689CBCBBBCCCCCCCCBBBBBABABABAA99899A9A9AA9999BFFFFFFFFFFFFFFFFFFFFEFEFFFEFEFFFFFEFEEEFFFEFEFFFEFEFEFEFEFEFEEEEEEDEDEDDDEDDDDCDCDCCCCBCCCBBBBABAB8AA",
"000101010101357ABCBBABBBBBBCBBABBBABABABAA9989899A9A999AACFFFFFFFFFFFFFFFFFFFFFFFFFFEFEFFFEFEFFFEFEFEFEFEFEFEEEFEFEFEFEFEFEEEEDEDEDDDDCDDDCDCDCCCCCCBCBBBBAAA969",
"1010101010102478AAAAAAAAAAAABABAAABABAAAA9999899999999BBDFFFFFFFFFFFFFFFFFFFFFFEFEFFFEFEFEFEFFFEEEFEFEFEFEFEFEFEFEEEFEEEEEEEEEEDEDEDEDDDDDDCDCDCCCCBCBBBBABAA876",
"0101010101011458888989999A9AAA9AAA9AAA9A99998989899AABCFFFFFFFFFFFEFFFEFFFFFFFFFEFEFEFFFEFEFEFEFDFEFEFEFFFEFEFEFEEEEEEEEDEEEEEDEDEDEDDDDDDCDCDCCCCCCBBBBBBABA755",
"1000111010112345667788889999A9A9A9A9A9A9A9989899A9BACEFFFFFFFFFFFFFEEEFFFFFEFFFEFEFFFEFFFEFEFFFEFEFEFEFEFEFEFEFEFEEEEEEDEEEEEEEDEDEDEDDDDDDCDCDCCCCCCBBABAAAA422",
"000101010101233445677778888999999999999988899AAAABBDFFFFFFFFFFFFFFEEEFEFFFEFEFFEEFEFEFEFEFEFEFEFEEEFEFEEEFEEEEEFEEEEEEEEDEEEEEEEDEDEDEDDDDDDCDCCCCCCBBBBAAA96323",
"000000000012214344667777878898999898988789A9AAAABCFFFFFFFFFFFFFFFEFEFEFEFFFEFEFEFEEEEEFEFEFEEEFEEEFEFEEEEEFEFEFEEEEEEEEDEEEEEEEDEDEDEDEDDDDCDCDCCCDCCBBAA7422247",
"00000000011211333456676777788989897878899A9AABBDEFFFFFFFFFFFFFFFFFEEEFEFEFEFEFEFEEEEEFEEEFEFEFEEEEEEEFEFEFEEEFEEEFEEEEDEEEEEEEDEDEDEEEDEDDDDCDCDCDCCBA7422468CDC",
"0000000011222033445566767777887777767899AAAABCFFFFFFFFFFFFFFFFFFFEEEEEFEEEFEEEFEEEEEFEFEFEFEEEEEEEFEEEEEFEFEFEFEEEEEEEEDEDEEEDEDEDEDEDDDDDDDDCDCCA97612125778888",
"000000011212112334456667777778887755699AABBDFFFFFFFFFFFFFFFFFFFFEFEEEEEEEFEEEEEEEEEEDEEEEFEFEFEFEEEEEEEEEEEEEFEEEEEFEEDEEEDEDEDEDEDDDEDDDDCDBA754444321579987878",
"10000001212120234344567677778887866568AABDFFFFFFFFFFFFFFFFFFFFFFFEEEEEEEEEEEEEEEEEEEEEEEEEEEFEFEEEEEFEEEFEEEEEEEEEEEEEEDEDEDEDDDDDEDEDDCB8743232322247EFFFF77788",
"0100000212121113343445677777788888775AADFFFFFFFFFFFFFFFFFFFFFFFFEEEEDEEEEFEEEEEEEEEEDEEEEFEEEFEEEEEFEEEEEEEEEEEEEEDEEDDEDEDEDDDDDDCCA9532223233323234FFFFD867778",
"0010112121212012434445656676888888988CFFFFFFFFFFFFFFFFFFFFFFFFFFFEEDEDEEEEEEEEEDEEEEEEEEEEEEEEFEEEFEFEEEEEEEEEEEEEEDEDEDEDEDECCBA87453212122333343324AAA88866677",
"0111121212121102343445556667887899998FFFFFFFFFFFFFFFFFFFFFFFFFFFEEEEDEDEDEEEDEDEEEDEEEEEEEEEEEEEEFEEEEEEEEEEEEEEEEEEDEDEDDCB864546443312122333333335698847567655",
"1111112121212011434344656566778899989EFFFFFFFFFFFFFFFFFFFFFFFFFEEEEDEDEDEDEEEDEEEDEDEEEDFEEEEEEEFEFEFEEEEEEEEEEEEDEDDCA86543323344433121246434344234898653334434",
"0111121212122101343445455656677889899DFFFFFFFFFFFFFFFFFFFFFFFFFFEEDEDEDEDEDEDEDEDEDEEEEEEEEEDEEEEEEEEEEEEEDEDEDDBA8744342323222333432224466865333334798866565656",
"111121212121211033434455656667778899ACFFFFFFFFFFFFFFFFFFFFFFFFFEEDEDEDEDEDDDEDEDEDEDEDEDEEEDEEEEEDEEEEEEEEDBA753434443333232223233323334434564533343888776767677",
"0111121112121101243434455556677888899CFFFFFFFFFFFFFFFFFFFFFFFFFEEEDEDDDDDDDDDEDDDEDEDEDEEEEEEEEEEEDDBA7868753323243433233333233333222356554534575545997777776778",
"111121211121211023434445656676778899ABFFFFFFFFFFFFFFFFFFFFFFFFFEEDEDEDEDDDDDDDDDDDDDDDEDEEEDDDB98643323387754322223233334443323332224455767645889754988777777777",
"1111121112121111134434455656677888899AFFFFFFFFFFFFFFFFFFFFFFFFEEEEDEDEDDDDDDDDDDDDDDDDDDB976332222222223BDBA5422222334443433333433443468887666678864687767776777",
"11112121212111211343434465667787879898FFFFFFFFFFFFFFFFFFFFFFFFFEEDEDDDEDDDDDDDDDDCB97542222222223232322269A99A72222344434433434333422247998675444453888777767777",
} ;
