/* XPM */
static char *duncan3[] = {
/* width height num_colors chars_per_pixel */
"    80    60       16            1",
/* colors */
". c #000000",
"# c #111111",
"a c #222222",
"b c #333333",
"c c #444444",
"d c #555555",
"e c #666666",
"f c #777777",
"g c #888888",
"h c #999999",
"i c #aaaaaa",
"j c #bbbbbb",
"k c #cccccc",
"l c #dddddd",
"m c #eeeeee",
"n c #ffffff",
/* pixels */
"bbbccccccccccccccdcccddddddddddddddddddddddddddddddddccdcccccccccccccbcbbbbbbbba",
"bbbcccccccccccccccccddcdcddddddddddddddddddddddddccdddddccdccccccccccbbbbbbbbaaa",
"bbbccccccccccccccccccdcdddddddddcddddddddddddddcbada#bcddddccccccccccbcbbbbbbaaa",
"bbbbccccccccccccdcdccdcddddddddddddddddddddddddbbddddeda#bccccccccccccbbbbbaaaa#",
"bbbbcccccccccccccccdcdcddddddddddddddddddddddcccddddeddcbbbabcccccccccbbbbbaaa#a",
"bbcbcccccccccccccdccccdcddddddcddddddddddddddbcddeeeedcbbbbbcccccccccccbbbbaaa#a",
"bbcbcccccccccccccccdccdddddddddddddddddddddcccdddddddbbbbbcdccdccccccccccbbaaa#a",
"bbcccccccccccccccdccdcdcdddddddddddddddddddcbddddddcbbbbbcdddcdccccccccbccca#aaa",
"bbcccccccccccccdcccdddddddddddddddddddddddccdddddccccbbcdddddcdccccccccccccaaaaa",
"bccbbcccccccccccccccdcdddddddddddddddddddbcdcdccccccbbcdddddddddcccccccccccaaaa#",
"bbccccccccccccccccccdddddddddddddddccbddcccccccccbcbbddddddcddcdcccccccccccbaaa#",
"bbccccccccccccccccccddddddddddddd#......bccccbccbbccddddcbaaccddcccccccccccbaa##",
"bbccccccccccccccccccccdddddddddd#........#bbbccccbdddddbbcccddddcccccccccccba#a#",
"bcbccbccccccccccccccdddddcddddd#..........#abcbccddddddccccdddddcdccccccccccaaa#",
"bbbccbcccccccccccccccdddddddddb...........#abbbcdddddddddddddddddcccccccccccaaa#",
"bbcccbcccccccccccccdcdcddddddd.......##..#.#bbddddddddddddddddcddcccccccccccaa#a",
"bbcccbcccccccccccccccddddddddd....bdbaa#.###cddddddddddddddddddddcdccccccccca###",
"bbbbbbcbcccccccccccccddddddddb...#cdcbaaacc.ddddddddddddddcddddcdcdccdcccbcca#..",
"bbbbbbbbbbbccbcbcccccccdddddd#...cc....aach#dddddddddddddddddddcdcccccccccb##...",
"bbbbbbbbbbbbbbcbccccccccddddd#..#da####a#.#bdddddddddddddddddddddddccccccc#..###",
"abbbbbbbbbbbbbbbbbbcccccccddd##bbdcc#.#d#.addddddddddddddddddcddcddccccccc##a.#a",
"aaaaaaabbbabbbbbbbbbbccccccdcabccddcbbcddagdddcddddcdddddddddddcddcccccccc##.#aa",
"##aaaaaaaaaaaaabbbbbbbcccccca#ccbcccbaddgkldcdcdcddcdddddddddcdccccccccccaaa.bbb",
"####aa###aa#aaaaababbbbbbcbaaabaacbbaa##bbgccccccccccccdccccccccccccccaabbaa.cac",
"##a##a##a###a##aaaaaaabbbbbbba.adcbb#aa#bacccccccccccccccccccccccccaabbbcbaa.ccc",
"aaaa#a#a#####a#aaaaaaaaaaaaaaa#dcbbb#aaabaebbbbbbbcbcccccccccbcbabcccccbbbab.add",
"baa##aa#a#a#aaaaaaaaaaaaaaaaa#.dbba#aa#aebdbbbbbbbbbbbbbbbcbcbbbbbbbbbbbbbab.#cd",
"dcaa#a####aa#a#aaaaaaaaaabaa#..caaaaaaabdbcbbbbbbbbbbbbbbbbabbbbbbbbbbbbabab.##b",
"fdcbaa##a##aaa#aaaaaaaabbcd....#a###aa#bcabbbbbbbbbbbbbbbbbbbbbaaaaaaaaaaaadhjii",
"hgecaa#####a###aaaaaaabcdee##...#.....#.#..#bbbbbbbbbbbbbbbbbbbaaaaaaaaaaaajkjji",
"aa#########a####aaaabbcdb#.............#.....abbbbbbbbbbbbbbbaabaaaaaaaaaaaijjjh",
"..##a##.###a...###ab#..............##.#...#...#abbbbbbbbbbbbbbbbabaaaaaaaaaijjif",
"..##dcbaaaaa###....................aba.....#....#babbbbbbbccddcccbbaaaaaa#accaaa",
"..#aedcbbaaaaa#.....................cb#.......#.b#.....bcbdeeedddcbbaaa##aaa####",
"..aaeddbbaaaa##.....................a##...#.....#....#.a#bccbbbababbba#..#aaaea#",
"..aaeedcbbaa###......................####.#.......##...bb.#aabbaaaa###...##aaebe",
"dca#eedccbbccb#..............#...#######..##.....#.##..bc#..#cbaa#aaaa....#ckggi",
"gbaaeeddccbbbb#.................#########.###..#......#cd....cbaaaaaaa###.cb#ecb",
"fbaaedddccbaba................#.#..######.####..#.#...#dd#.#.baaaaaaaa#a#####dcd",
"##aadgfedcc#b..............#.#......##a#..#.##.#fh....#nnnnnkbaaaaaaaaaa#..#bcba",
"aaabdg###cea#.............#.........####......##..##...#hhggfbaaaaaa#a##....#cba",
"c#bd#gaaaafb#.........................###......#..#.....imlllkiaaaaa#a#....#acba",
"kb#cbdaaaag#......................#...###....#.##.......#eeeededaaaa##.....#ccaa",
"dle#..#a#dg#.....................#....###......###.......ddeedddcfaa#......#bbbb",
"ahd......###.............a......#..##..##.#......#..#....beeeeeb##aa......dgbbcc",
"b#ca#............................######.###.##......#....#ddddda##a#....bggcabcc",
"abb.#......................................#####.........##abcecef#....dggdaabbc",
"bcdda#...a#....................................###..........####ba....bc#ba#acba",
"cdddeddddf#.................................................####a.....ac#####bca",
"eeceddddee........................#.....#....................###.....aba.####aca",
"aacddddeee....................###..#.############............###.....a#######aab",
"..#aaaaabb...................##.#..#.##.###....####...........#a....###.#a###ba#",
".........#..................................##.####...........hc....###..####aa#",
"................................................#.#.........#.#a##..###...###bb#",
".....#..#.#.......................................##................##a#..####aa",
".........................................#........###.....#...#.a######....aaaaa",
"..........................................#######.#.#.....#.#.#########....#a##c",
"...#............................#...###....###.##....#...##.#.#####a#a#.....a###",
"...a.............................##.............#.#....#..#.#..####a#a#.....###.",
"...a....#........................#ejgb#...a.##.......c##......#####aa##......##."
};
SIMPLE  =                    T                                                  BITPIX  =                    8                                                  NAXIS   =                    2                                                  NAXIS1  =                   80                                                  NAXIS2  =                   60                                                  HISTORY Written by XV 3.10a                                                     END                                                                                                                                                                                                                                                                                                                                                                                                                                                                                                                                                                                                                                                                                                                                                                                                                                                                                                                                                                                                                                                                                                                                                                                                                                                                                                                                                                                                                                                                                                                                                                                                                                                                                                                                                                                                                                                                                                                                                                                                                                                                                                                                                                                                                                                                                                                                                                                                                                                                                                "                            f»ˆ3   "        D      ""          "                                                    ""                                                      ""     "                                                       "D                                                          "    """""                                                               "  ""                                                           "     33                                                       ™D      ""  """""33                                       "     "3"""DUUUUfff                                        """3ffDfUUUUff                                                      "3" "D"DUUUfUUUUw                                                 "     "D3D"3DUU"   "                                              3"    3D3""D3""33                                                "3DfDfw    UˆˆU""33D3D"                                        UUUUU""    3ˆˆD"3DD"™U                   "                       3fffff3""      Uˆ33DDUÝf  "Uˆ                                      UUffUUUDw""      3333Ì3D3U""""ˆ                                     ffffUfU""""     DD""D3Uˆ""""w3                                      ªîÝÝÝÌª""""""    "D3""""3UˆDf"                                 ™™ˆˆw3"""""""    D3"""UˆwfUDD3                     "    w™    ÿÿÿÿÿÌ3""""""""""  3D3"w3""fUUUDD3"3"                          UU  3"""""""""UDUˆ3""ffUUDD3333                          DU    D3""""""" D3fD3UD"ffUDD33DD3                           3D  D3""""""    DÌˆˆª  ""ffUD33""                                 33 ""33""""   ""f3f  ""fUU33""""                     "             "3DD333"3"333"  """f"  "fUD33"""""                     D3        3     3D3UfffUUUD33""""""  UD3"""""                    "3"         3"3333333DDUUDDD33"""""""DD"""  " "   "3                     "3333333333333333"3"""""""""ª»»ªw"""""""33DU3                  "333333333333333""3"""""""""""ª»»»™™ˆfD""""""""""3DUff           3333333333333333333""""""""""""»Ì»»ªwUD3""""""""""""""33DU    """3D"333333333333333333333""""""""""""U™»ªªUD""""""""""""""""3""  D"""""""3U3D3333333333333333"333333333333"3"3 33""""""""""""""""""""""" U33""""f3U333333333333333D3D3333333333333"3 DU""""""""""""""""""""""UD333"""3"f3333333D3DDDDDDDDD3D3"3DDDDD333"3 "UU"""""""""""3333333" "UD33""3"DDDDDDDDDDDDDDDDDDDDDDDDD""333D3"" DDD"""""""""3"333333D3"""3""D33""33ˆDDDDDDDDDDDDUDDDDDDDDDDDDDD""33"" D"D"""""""""""""3333333DDDDDD"DD3DDD3"UUˆÌÝUDUDUDUUDUUUUUUUUUDUDDDDDDDDDD""" 333"""""""333"3333333333DDDDDDUD"3DDUUD33DUU"ˆUUUDUUUUDUUUUUUUUUUUDUUDDDDDDDD """333333333333333333DDDDDDDUUU33UDD U "UUUUUUUUUUUUUUUUUUDUUDUUDDDDDDD" "33333333333333D3DDDDDDDDUUUUU  U"" 3UUUUUUUUUUUUUUUUUUUUUUUDDDDDDD  33333333333DD3D3DDDDDDDUUUUUU   DD    ""D™UUUUUUUUUUUUUUUUUUUDUDDDDDDDDD3   333333D3DDDDDDDDDDDDDUUUUUUUU3   DUD3"""DD UUUUUUUUUUUUUUDUUUUDUDUDDUDDD3DD"  33DDD3DDDDDDDDDDDDDDDUUUUUUUUU    3U3"" DUUUUUUUUUUUUUUUUUUUUDUDDDDDDDDD"33DDD3DDDDDDDDDDDDDUDUDUUUUUUU          33UUUUUUUUUUUUUUUUDUUDDDDDDDDDDD"""333DD3DDDDDDDDDDDDDDDUUUUUUUUU3           "333DUUUUUUUUUUUUUUUUUDDDDDDDDDDD"""3D3DD3DDDDDDDDDDDDDDUUUUUDUUUUU          "3D3DDUUUUUUDDDDUUUUUDUDDDDDDDDDD"""33DDDDDDDDDDDDDDDDDDDDUUUUUUUUUU        333DDDD3UUUUU33DDDUUUUDDDDDDDDDDD3""33DDDDDDDDDDDDDDDDDDUUUUUUUUUUUUU      3DDDD3DD33DDUUUUD3""DDUUDDDDDDDDDDD3""33DDDDDDDDDDDDDDDDDDUUUUUUUUUUUUUUUDD3UUDDDDDDDDD3D33UUUUUUDUUDUDDDDDDDDDDD3"""3DD33DDDDDDDDDDDDDDDUDUUUUUUUUUUUUUUUUUUU3DUDUDDDDDD33DUUUUUUUUUDDDDDDDDDDD""""33DDDDDDDDDDDDDUDDDUUUUUUUUUUUUUUUUUUUUUUUDDUUUUUDDDD33DUUUUUDUDDDDDDDDDDDD"""""33DDDDDDDDDDDDDDDUDDUDUDUUUUUUUUUUUUUUUUUUUD3UUUUUUD33333DUUUDUDDDDDDDD3DDD""""33D3DDDDDDDDDDDDDDDUDDUUUUUUUUUUUUUUUUUUUUUDDDUUUUUUU33333DUDDUDDDDDDDDDD33""""33D3DDDDDDDDDDDDDUDDDDUDUUUUUUDUUUUUUUUUUUUUU3DUUffffUD33333DDDDDDDDDDD3333""""3333DDDDDDDDDDDDDDDUDUDUUUUUUUUUUUUUUUUUUUUUUDDDUUUUfUUD333"3DDDDDDDDD33333""""3333DDDDDDDDDDDDUDUDDUDUUUUUUUUUUUUUUUUUUUUUUUU33UUUUfU"3DDDDDDDDDDDD33333""""333DDDDDDDDDDDDDDDDDDUDUUUUUUUUUDUUUUUUUUUUUUUUD3"U"3DUUUUDDDDDDDDDD3D333333"""333DDDDDDDDDDDDDDDDDUUDUDUUUUUUUUUUUUUUUUUUUUUUUUDDUUUUUDDUDDDDDDDDDD33333333"""333DDDDDDDDDDDDDDUDDDUUUUUUUUUUUUUUUUUUUUUUUUUUUUUUUUDDUDDDDDDDDDDDDD3D33333333"                                                                                                                                                                                                                                                                                                                                                                                                                                                                                                                                                                                                                                                                                                                                                                                                                                                                                                                                                                                                