/* XPM */
static char * xpm = {
"160 120 16 1", "0 c #000000", "1 c #111100", "2 c #222200", "3 c #333300", "4 c #444400", "5 c #555500", "6 c #666600", "7 c #777700", "8 c #888800", "9 c #999900", "A c #aaaa00"
, "B c #bbbb00", "C c #cccc00", "D c #dddd00", "E c #eeee00", "F c #ffff00",
"3434344444444544454545454545454545554545455555555655555556555555555555555555555655555555555555555555575555454555454545454545444545444444443444343433333333333323",
"4444444443444444545454544454445454545554545555555555555565555555555555555555655555555555555555545555566555655554555454545454545444544444444443444343333333323332",
"3434344444444544454544454545454545454545555545554555555555555555555555555555555555555555555555555444455555555555454555454545454544444444443434343433333333232323",
"434344444344444454445454545454545454545554555554555555555555555555555555555555555555555455555555533222334457A765555454545454545454445444434343434333333333323232",
"3434344444444444444544454544454545444545455545555555555555555555455556555555555555555555555555443326542213344556565555454545454545444444443444343433333333232222",
"4343444343444444444454544454545454545454545555545555555555556554555555655555555555555555555555443255556554422233445454545454545454444444434443434333333232323221",
"3433343444444444444544454544454555455545455545555555555555555555555555555555555555555555555554333555555656665422133445454545454545444544444434343433332323222212",
"4343444343445444445444545454544454545454545555545555545555555555555555555455555555555555555544235555556566656554433222334444545454545444444444434333333232222121",
"3434343444444444444444444545454544454555455545555555555655555555555555555555555555555555554442465556565666565544333333223444454545454445444434343433332322221222",
"4343444443444444445444545454545454445455555455545555555555655565655565555455555555555555554423555565666665555443333232334454545454545454444444434343322221212121",
"3434443444444444444445454545454545554545454555455555555555564655565655565555555555555555543245555666666666554434333333344545454544444444454444343434322222221222",
"4343444443445454445454545444545454555454555555555455545555655565656565655565555554544454432455555565656565544343433333545554545454545444444444444443422222222121",
"3434443444454445444445454545454544454555454555555555555555555656565556565655565556555544424555555655565655343434333445554545554545454445454444444434332222221222",
"4343444443444454445454445454545454545554555455556555556555556565656565656565656565556544235555655555655444434343434455545554545454544454444444444344432222222221",
"3434444444444444454445444545454545554545554555465555555556565656565656565656565556565442355555555655554434343333344555555545554545454544454444344444442212222222",
"4343434444444444445454445444545454555555545554555555556555656565656565655565656565554324545455556555554443333243555555545554545454545454444444444444432222222222",
"3434444444444444444445454445455545454555555655555555565556565656565656565655565556544245555555555444454544343345555555555545554545454545454444454444442222222222",
"4343444444444444444444445454545455545454545555555565556555556565656565656565655565432455545555545444434443434455555555555555545554545454544454444444443222212221",
"3444443434444444454445454445454545454545554555555556565556565656565656565655565654324455445545454444444433344556565555555555555545454545454445454444442222222212",
"4343444443444444544454444454545454545454545555555565656565556565656555655565656543244455445454544444444433455565556565555555555554545554545454544444443222222221",
"3434444444444444444444444445454545454545555555565556565556565656565656454434565442454545444544444534443335565655565555455555455545454545454545454444443222222212",
"4344434444444454545454545454445455545555555555555565656565656565655321211122333334545455444344434444434455655555554333445555545554545454545454545454444222222222",
"3434444444444444454445454545454545454545555555555556565556565656551101010101010233454444443444443434444555565555443323244545555545454545454545454545453222221212",
"4344434444444454544454445454545454545555545555555565556565556565511000101010000001345443444344444443445565655554334343345455555555545554545454545454444222222122",
"3434444444444444444444454545454545454545454555555555565656565554110001000001000001133433344444454434555656555533344545455555555545454545454544454444443222122212",
"4343444444444444444444444454445454545555545555555564656565656552100000000000100010112333434344444355656555655444545454555455555454545454545454544454444222222122",
"3444344444344544444444444544454545454545555555555545565656565411000000000000000001011223344434444556565656565544454545555555555545554545454545444444444222222212",
"4344444444445444444444544454545454545455545555555555656565655210000000000000000000002223434444345565656565656554545555555555555454545454545454544454544222222122",
"3434344444344445444544454544444544454545455555555556565656563100010000000000000000001223343434465656565656555655555655555555555555454545444545454545454322222212",
"4443444444444444444444544454445454545454545455555555656565641010000000001000100000000022334345556555556565655555655555555555555454545454545444544454545222222121",
"3434444444344444444444444544454445454555455545555556565656530000010000010111110000110112343456565556555656555555555555555555455555454545454545454545454322221222",
"4343444344434444444444444444444454445454545555555555656565611000000012212221111000111022455565556565556555655555555555555555555555545454545444544454545222212121",
"3434444444344444444444444444454444454545455555555555565656510000000136543323221101111112455656565656555556555655555555555555555555455545454545444544454322121211",
"4343444343434444434444544444444454545454545555555555656565500000001146655433221111322011556565656565656565656555555555555555555555555455545454545454444322211010",
"3434343434344434444444444444444444454545455555555556555656310000011346554333232323464102565655565656565556555556555545555555554555455545455545454534444422110101",
"4343434343434344434444434443444444445454545454555555555565200000002355422111223334688112555565656565656565555555555555555555555455555454545454545444544221100000",
"3434343434343434343434444434443444454545454545555556555655100000014542010000012323469514555555555655565556555555555555555555554555454545454545454544321111000001",
"3333433343334343434343434343444443444454545455555555556555100000135531111110002210115624555555555565656565555555555555545555555554555454545454545442211000101011",
"3333333433343334343434343434443444444445454445455555555555100000155521121111112211011335555555565555555555555555555555555555555555555545454545454543110101111211",
"3333333333333343334333434343434343434443445454545455555555123310256432211010124621112154545555555565555555555555555555555555555555555454545454545442221122211111",
"2333333333333333343334333434333434343444444445454545555555111231355645431101135A11022355555555555655555555555555555556555645555545555545454545454543131322011222",
"3232333333333333333333333333333333434343444454545454545554315441456555532122446B31113555555555555555555555555555555555555555555554555454545444445443231110112232",
"2323232323232333333323333333333433343434344444454545455544223242455655443334465B53248855555545555555554555555555555555555555554555554545454444444444131101122322",
"2232323232323232323232323233333333434343434344444454545542233151455554544333466B89BDFA65545555555555555555555555555555555555555454545454445454445443232011223333",
"1212222222222323232223232323233333333434343444444444444423134441344544443323575B87CFDB55455545554555554555555555555555555545554545454544454445444322242101333434",
"212222212122222222222222323232323232333343334344444444422223654123444333322332348469BA54545454545454545554555455555455545454545454544454545454322122232011433444",
"1212121222221212122222122223232323332333333334343444342223213322244433332222111133358945454545454545454545454555454545454545454544444544444322233334232101442444",
"2121212221222121222122222122222232323332333333334343322233300124544443322222211232236654545444445454545454545454545454545454544444544443323233334343233011533454",
"1212221212221212221212122212122222222323232333343334333333210225544433321223221532234544444444444544454545444445454444444444444444444322233334344434232101454545",
"2221212221222121222221222122212222222222322232323233334333421244544333321121222452235333434344434444544444544444444444445444444443322333444444444333223111456555",
"2222222212221222121212121222122222222222222222232222232223231255443333321222232233246433333334333434443444444444444444444434443323344444454444333334223101255656",
"3222212222222221222122222222222222222222322232322232222232200254433332212332224542356343333333333333433333433344444344444444433333445554543333434343323011236665",
"3323221212222212221222132222222222222222222322232222222222100254333322122322122563365333343334333433343433333333343444344434343434343433333334333333223101114654",
"5443322222222222212222222122222222222222322222322232222231000153323222223331112463354333434333434333433343433333333333333333433333333333333333333243313111111121",
"5544222212221212121222221222122222222222232222232333232211000144222222232322223455354333343434333334343433343333333333233333333333333333333333332333223101111336",
"75544232222122212221222221222222222232223222323233444320000000332122222232323244644343433343333343434333334333333333333333333232323233323332333332323140224689A9",
"775543332322121222121222222212222222232222232333344454000000001322111212222212344422333334333333343333343333333333333333333333232323232223232323232322579BBBAAAA",
"877553333221212121212121212122212222222232323343455566201000001221101121212111223210123333434333433343334343333333333333323332323232323232223222323235CCCBCABABA",
"9A8865442322121212121222121212222222232223233445576664101000000111000101010111011000011334333434333433343333333333333333333333232323232223232323222325BCCCBBBBAA",
"212232323221212121212121212122212222322232334455697410001000000000101010101010121010001123434343433343433343333333333333333322323332323232323232323234CBCBCBBAA9",
"222211111312121212121222121212122222222333344554331100000100000000000101010101140101000102233433343333343333343333333333332323332323232323232222232324ACBCBBBB9A",
"212221212220212121112121112222222222223332333110001000000000000000000010101011321110100011113333433343333343333343333333333332333232323232223232323233BBCBBABAAA",
"000012112211110111121121000101111212233211010101000000000100000000000111120112000101110001011223333433343333333333333334343433332333232322232223232324ACBCBBAA77",
"000021215543422221111010101011101010101010100000000000000000000000000042211110000000121000101111334333433343333343334444545444434332323232323232322123AAB9855332",
"0000121255443323222222221211110101010101000000000000000100000000000000243323000000000111010001011233233333333433343444455555454444333323232323232312234543232222",
"0000222265544333322222322222211010101010001000000000000000000000000000135430100000000010111000101111101122223333444454556565555454433332323222222232333232212111",
"0000122366554434332322222322110101010101000000000000000000000000000000024631110000010000010111033111010101010334443556676666565555443333222322111222232212121112",
"0000222376655443323222322222201010000010001000000000000000000000000000015511100010001000101000003010101010101321434344655565656555544332323221101121222234412121",
"0000222467565434332323222112110100010001000001000000000000010000000000012311110000001100010100001101010101110322123444453434332333233333332211010112222226632212",
"0000222576655444433232322012200010101010001000000000000000000000100000101321111000001100100010001110101010101332323444554444323232222122212110100011212236642135",
"0001222667665545333323221113110000010000010000000000000000000000010001010211121110011200010100000101111101010333310111222334332323222212111101010111122326653469",
"21112226766664544343334432222000101010000000000000000000001000001010111011112121100011200010100000101111101013344111101112443332211121112221101000101122356567A9",
"57422216676655454433334544331101000101000000000000010001001000010111111111121212010112110001010000110111110104344111010113443323211222222322010100011248CD8888AC",
"664222267665655454433344545310001010001000000000000000100110001111111111212121211010212110001010001010101010144451101011234332322122323222221121100016FFB899988A",
"8A33222666665555444434333433110000000001010000000001000101000101111111111112121211011211110001110002010101011545510101010344332322232222222311111101483212684435",
"9B42222666666555544443413331100010100000000010000000101010101011111010111021212110101111111000111011101010111455511010101343333321323232223221111122511113545433",
"7B33222666565555444434213421010000000000010000000000000201011101110101121112121111011112111100011101110001011556521101110334232322232222222212221211111215544653",
"2331212566656555545444124310100000000000000000000000102010111110100010111021111110101101212000114940101011101DFFEBA764421343323221323222222122322211111134434464",
"1212222657887766554544133201000100000000000000010001011001110100000000021112221101011100121100167992010001011BFFFFFFFFFFC533232322232222222222221101011134433423",
"2221223568B67788988654332010100000100000000000000000010010000010101000112011221110001000001110353000111000001168989999986443322222322222222122211010101134533322",
"2222223559831212134965231100000000000000000000000001100001010101010000011111121101010101000112110000111001010118999989887533222322232222122212110101010214433322",
"3222314329932222222875331000100000000000000000000000201011101010101010101111112110101010100001200000101000001014DDEDDCCCCDB6323232222222222121101010101123433232",
"421232531A832222232975331101000000000000000000010001000101010101010101010101121111010101010101110100110101010101AEEEDEDDDDCDA62222222222122211010101011323443224",
"522125B83A8332323238853210101010000000000000000000010010111010001010101011111111100010101011111010001001000010113ABBCBCCDCCCCC9322222222212110101010102343543223",
"CB32154635522223232985110000000000000000000000000002000101000101010111010101121111010101011101111100010200010101156766676656665322222222121101010101011443442323",
"9EF8223324301232223994211010101010000000100000000001001010100000101110101000111110101011101001102110101110100010146665666555555334532221211010101000102443533232",
"5CDE611100011221155A85110001000101000100000000000001000001000001011100000000121111010001010101111210010100000101045656676556555546742222110001010001011433333434",
"39BC911000101010112673201000101000001010000000000030001000000010111110101010111111101010101010101110101010001010125665666555554222222121111010000000136433323443",
"289A520100010000011112110001000000000000010000000020000001000001110101111100011311011101010101010111000111010001013767666666663211122221010001000002588433334543",
"3552341100100010001011101000101000100000100010000110000000000010111110111111100121111011101010101010100010000010102566666665653111112210101010000047986222335554",
"3314432210000000010001010000000000000100000000000200000000000101011111111111110011111101111101000101010110000001011356555655552211122110010001013689874323334545",
"2144411110000000001010000000000000000010100000000000000000100000101111111110101010111111112110101010100010001010111123434455552121212110000010158888753122324453",
"2333310110000000010101000000000000000000010000000000000001000000000000000000010000010111111112110101000100010001011111233546664767731100000002588888542224333543",
"2232335320000000001010000000000000000000000000001000000000000000000000000010000000000000111111211020100010000010101011112234556777821010001014677786422124533432",
"3445555522110000012311000000000000000000010000000000000000000000000000000000000000000000010101111111000100000001010101011211121533210100000035431333221124423423",
"345455656555444334DF20001000000000000000000010000000001000000000000000000000000000000000000001101010000010000000001010102111112332101000000142222221111123434324",
"4556555665565556567811010000000000000000000000010000000101000101000000000000010000000000000000000000000000000000000001011111111421010000000323431212111113344324",
"6666545565656565666310001000000000000000000000001000001000101010101010101010100120000000000000001000000010000000000000101111112310100010002244311121112113334424",
"6766466656565656666201000000000000000000000000010000000000000001010111010101010111010101000000000000000101000000010001010111111200000100012233220212111213244424",
"6664666666656566666110001000001000101000000010000000000000001000101010101010101011111011101000101010100011000010001010001131111010100000013132211121112122224442",
"2324455656565666666101000100000000010100000000000000000101011111110101110111111111111111111111111100000101000001010001000111111100000000022111111112111212232433",
"2212323333444455666110001000000000100000000000000000001010101011101110101011111111111111111111111110100011100000000010001012322010000000122121011021212121223222",
"0101122222232323333101010001000001000100000000000000010101111101110101110111110111111101010101111211100001010000000101010102142100000000121111011122111213332312",
"1021100010111122223010101000000010000010101000100000101011101010101110101010100010111010111111111111200010100000001010001003987110100000211011001021212122323221",
"0101000000000000011101000000000100000101010100010001010101010101010101010101010101010101111101111111110001000000010101000102974101000000121111010112111212232213",
"1010100010100000000010001000001010101010101010000010001010101010101010101010100010101010101011101110110010100010101010101011333221100000211011100012222122333122",
"0001000100010100010101010000000101000101010101010001010101000101010101000101010101010001010101011101110100000101010101011101122211110001121111010002121112333312",
"1000101000100010101010100000001000101000101010101010001010101000101000100000100010000010001010101011101010100010001010101110101000100011211111200011222111224421",
"0101010000110101110111000000010100000101010100010101010101010101010101010100000100010001010001010101111101010000010101010101010001000101121222110001121112122322",
"1010100000101010111010101000101000101000101010101010101010101011101010101110100010001010001010101110101010101010101010101010101021101111211121101010122132222222",
"0101010100010101010100010001010001010101010101010101010101010101010101010101010101110000010001000101111111010101010111010101110124111112121111010001022222222322",
"1010101000100010101110100010101010101000101010101010111011101010101010101010100011111011111011101110101010111110111010101010211122111121211110101010002122213455",
"0101010101010100010101010001010101010101010001010101010101010101010101010101010100021111121112111101110111010101010111011101111112111112121211010001011222121345",
"1010101000101010101110000010101010101010101010101010101010111011101010101111111110112121111111101011101010100010111011111010111111111111222110001010001122212244",
"0101001001010101010101010101010001010101000101010101000101010001110101011111110101010111121101111101010101110100011111011101111111111222122211010101010222121214",
"1010101000101000101010100010101010001010101000101010000010101011111111101110100001100011111011101110101010111110100010101111111111112122212210000010001022212112",
"0101012101000101010101010101010000010101010101010100010001010101011111000100010101010101010101011101110101010111010111011101011111111222122211010101010012111101",
"1010103000101010111010101010101010101010100010101010100010001010101133201010100010001010101010101010100010101010101000101010111111111122212210101010001011111111",
"010101210100010111010101000101000100010100010101000101010101010101146BBA8632110101022101121101010101000102441111010101010101111111111222221211010001010002121101",
"1010103000101010101010101000001010001010101010101010001010001010102479A9ABDCCAAAA988A865666554434455666568A85110101010101010111111212122212221101010001010112111",
} ;
