/* XPM */
static char * xpm = {
"160 120 16 1", "0 c #000000", "1 c #111111", "2 c #222222", "3 c #333333", "4 c #444444", "5 c #555555", "6 c #666666", "7 c #777777", "8 c #888888", "9 c #999999", "A c #aaaaaa"
, "B c #bbbbbb", "C c #cccccc", "D c #dddddd", "E c #eeeeee", "F c #ffffff",
"3434343444444445454445444545455545454555555555566656666667677777787878888988898999899999899989998989898989898988888888787777777777676767666666565655555555455545",
"3333434444434444444444544454445454545455555555656565666666667676777787878888889888989898989999989898889898988888878787878777777777767666666665656555555554555454",
"3333453434343444444444444445454545454545555556555656566666666779998888888888788888898889899999888988898888888888787878787777777767676666665656565556555555554545",
"32334444444344434444544454544454545455545455555565656565656678BBBDFEDA978787878888888898889898889888889888878787877787777777767676667666656565655555555555555454",
"21122434444434344444444445444545454545454545565555565656566667889BDFFFFC8878787878888888888888888888888888788878787877777777676766666666565656565655555545554544",
"234221334344444344444444444454544454545554545555556555656665546676888CFFFB87878787878787888788878888878787888787877777777676767666766665656565655565555455545454",
"4444331224444434444444454544454545454545455545555556665766343334466A88ACCFF9777878787888888888887878787878787878777777776767676766666666565656555555554555454544",
"44445443223343444444444444445454445454545554555555656778854333323455889D99FFF88787778787878787888887878787878787777777767676766666666565656565655555545455545454",
"344444444312243444444445444545454545454545554555455545687423233324343458DB9EFF8877787877787878787878787878777777777777776767676666565656555655555555554555554545",
"4444444444422133445444444444544454545454545455555432323332223232323343458EFAEFD777778777878787878787877787778777778776767676666665656665656555556555545454545454",
"44344434343433123444444444454445454545454545455522222322232222232223344569CEBEFA77777778787878787878777877777777776767676667666666666656565655555555555545454545",
"444444444333333222334454545444545454545454555542222232323222223232323344679BBCDF97777777778787877787778777777777767776767666666666656565656555555555545554555454",
"34344434333323332212343444454545454545454545442222232332222223232323233448689CBCC7677777777777777777777777776777676767676766666656665655565556555555454555454545",
"43433333333232323232334444544454545454545454422222323222222233433332333345866ACBA8777777777787777777777777767677767676766676666565656565656555545555555554545454",
"233323232323232323333444454545454545454545552212222322222223454444233333445647BB99677777777777777777777777676767676767666666666666565655565556555555455545554544",
"3233323232322233334444444444445454545454555321222221222233345555544333334444447998767677777777777777777776777776767676767666666566656565655565555555555454545454",
"2322232323233334344545454544454545455555454322122212222334455666554433343534344688876767777777777777676777676777666767666666665666565656565555555555555545554544",
"3232322232333344444454445454545454545554555221212122222344567676655443434343434376877677777777777777777776767676767676666666666665656565655565555555555455545554",
"2333232223334444444444444545454545455545454212121112222445566777665544343333334446676767676777777777677777676767676767666766665656565556555555555555555555554544",
"3232323233444454445454545444545554555555554221112121224466767777766553433333334445567676767676767776767776767676767676666666666555656565555555555455555455545454",
"2323233335444444454544454545454545454545553211121222234567777777676654333333333445476767677767677777776767676767676766666666665656565656555555555555555545454545",
"3232334444444444444444545444545554555454554221112122345667778777777654434343333354457676767676777776777776777676767676666666666665656565556555555555545555545454",
"2223343444444444454445454545454545454555453211121223356767787778776655443443333334366767677777676767776767676766676766666666566656565656555655555555555555555545",
"3343444444445444444444545454545454555455554121212123556677878787777675544343433343357676767676777777777676767676767666766665656565656565555555555555555554545454",
"3434443444444445444445455545455545554555553211121235566777777778777756554544343334356667676767677767676767776777676666666666566656565655565555555555455555455545",
"3343444444433344544454545454545455555555553111112245666776767676777676655554433333346676767676777676767676767676766676666665666565656565556555545555555554555454",
"3434343433232224444544454545454545555555562111121345565655444445566777675655443333346767676767676767676777676767676767666656666656565655565555555555555555455545",
"4343433232433233444454545454545455555555652111212455544343223233456677766665544333446676767676767676767676767676766666666666666565656555655555555555555555555454",
"3434332334343334444545454545454545555555552111122556554434333333345667675666554433356767676767776777676767676767676767666656665656565655565555555555555655554545",
"4343433343433344444444445454545555556555653121214565655444445443445666655454546443347676767676767676767776767676766676666666656565656555655555555564655565555455",
"3434333434343444444545454545455555455555552322124656554434343445455666544333346643346777676767776767676767666766666666666666665656565556555655555556565656555555",
"4343434343444444444444545454545554555555642331225565544332223344546665544343435543346676767676767776767776767676667666666666666565656565655555555565656565656555",
"3434344434444444444544454545455555455555552442135656554432234434455656555555444533356767677777676767676767676767666666666666565666565556565655555656565666565544",
"4343444444444444444444545454545555555565544333236566666564335443447675544455655433567677767676777776767676767666666666666665656665656565555565556565556554433333",
"3434344434444444444445454545454555555555543325355666677655454444457765443334465534676767676777676767676767676766676766666666566656565656555655555544343445565656",
"4343434344444444445444445454545554555555544235545566767664544444668764443334456535767676767676767676767676767666766666666665666665656565555444434355667776766565",
"3434343434444444454444454545454545455555553335455566677766555557677755443445355547676767677767677767776767676666676667666666666656565544343445676667787878776666",
"3343434344434444444454544454545455555555554444545566767676766677778665445555556556767676767676777676767676767666766666766665655554444455667676767666888898998776",
"34343434443444444444454445454545455655555545554555666666676767676777655556565675476767677767677777677767676767676766666665444445577767777789AA987877899AAAACB877",
"4343434344434444444444444454445455555555655554545565667676766676768765656566767556767676777677767677767676767666766666766555767777777788AABAAAA9988679BCDEFFF986",
"343434344434444444454545454545455555555556555545455656676766566667776556565667755767776767676767676777677767666766666666665568787878789AA9668CCDBA6657DFFFDC9755",
"43434344434444444444544454545454555555556565445554656666666565667786656565657775567776767676777777777677767676767666666666655688888898BA547ABACBB875545676766665",
"343334344434444544454444454545455555555656553445555666675655566667776656665667655767776777677767676767677767666766666666666655698999AB6448AA89876655444567676666",
"334343444444444444445444545454555555555555555455555566656566556555766665666566545677767777777676767676767676767676766666666665568899B854789887656664433366767665",
"3434344434444444444544454545455555555556565645555555666656675544355666566656675557676767776767677767676667676766666666666666566556898537787879654433233446676766",
"3343444444444454445444545454545555555555555455555455656677767543434555656566765454445677767676777676767676766676666666666665656566785366767585433222223344777666",
"3434343444444444444544454545455555555656553345554556665777666654344545566656664556564556677777677767776766676766666666666666565656664345565543232212121333587767",
"3343434444444344545444545444555555555565553145545555656566666665545455556666655556666554567776767676766676766666666566656565656566853244444332222222212222478776",
"3434344444444444444445454545455555555655552455554545565545566656555555565666555557777777555667776767676767676766666666565666565657642223332323232222121222278877",
"3343434344444444444444544454555455555565643565545454555434667666655555556566655567878776765466767676767666666666666565656565656566422232223233323222222222349886",
"3333343434443444444445454545455555555655542555454445455543344556565655565666564567787767566767676767676766666666566666566656555554222322232333232323222223248877",
"3343334344434444444444544454545555556565633465544444445564433233445565556666655556666676767676667676666666656665656565656565656553222232323333334332323232338886",
"3333343433343444444445444545454555555655441456554444454555443433233334466677665567676767676767666766666666666666565666565656555633222333233434343333233334348987",
"3233334333434443444454544454555454433332333566644444445555544343434445656686656566766676767666667666666666666665656565656565555543223433334343434343333343339997",
"2323333334343444344444444544342333333444444456554444444545444444444556565787665556666767666657666666666666566656565656566656565644232323333334344434333434349A88",
"323233333343334344434333322233434454555453346565534444555554544454555565689666656666666666666666666666666665656565556555656555554332223332323344434343434334A997",
"2323233333333433332323343434454444444445322356565534444556554544455555568887676656666666666666665666666666565656555555555656555533332334443322244434344444358B98",
"222232323333333233434444444443445454544332225565644344556666655555655554899776666666666666656665656565656565656555555555555555544332333343333332334444445336AAA8",
"22232222232333333334344444444444343444432222366655443445566666555656553589886766566666666666565656565656565656555555555555555555333334443333333324343444434ABAA8",
"22223222323233333333334343334344445454522122345665544344556566656565544599977665666565666565666565556555656555555555555554555455434344433333323333433232436AB986",
"222323232323232333343334343444444445552222222346555444334545565556554445898877666656565656566656565656565555555555555555555555555435453434442344233434333479ABA7",
"2222222232223232323333444333334565656531222122345554434334445555555443459997776666656566656555656565655565555565555555555555555553445443434333333343334446BAAAA6",
"2323222323232323232345454422122224543322222212234544443334343445455444469A887766665656565656565656565556555555555555555555554556444554343433332334345535558A9A98",
"2222223232223232324443323332212121233122212122224444444333433344553134469998877666656565656565655565555555555555545555545555557754445443434333334343456957BCDCB8",
"2222222322232323333333232232321212121212221212122444444444344545662212479A8878675656565656555655555555555555454544444554444546E755455434344433333443458F7BCDCCB9",
"22322232323222333232223332322321212121222221211122434343334344556421222599988776656565656555555555555454545454556566666654445DB654545343444333334444448FBCDCCBA7",
"2223232323232332222212122323133212121212121212121223343334344556531212227A888877565656565555444444444555565655555655555545459EC944554434443433234444455899887866",
"434332323232322222222121233232332121222121212221212233434344555552212122388887775454445444445454545554545554555454545454556BFEB743545344434333334444556799BCDFD7",
"344444333333222222222211122322232222122212121212122323444445555543122212247878774444443434454544454555454545454545455667FFFFFB9743444444443334344445557ABBAAFFFA",
"334444544343222222212121212222212121212121212121212222445455556522212321225787765444445454545554545454544454556679DFFFFFFFFFB98553334443433333434454557FFFFFFFFF",
"333434454432221222221212121223222112121222122212121211244555565522221232122778775555555555454545454545444545CFFFFFFFFFEAD9A987753323343433233334444555FFFFFFFFFF",
"33333344532222212211222121222231212122212222212221212112445564552121213222237777555555545454545454444444436CFFFDDEFFFFFC8B8776634332433333224453345554FFFFFFFFFF",
"2323333333221212221212221211222222121212121212222212122224455555221312242222445555454544443434343434343336DEEFDA8BCDFFFFA85565553323333333322333344544FFFFFFFFFF",
"323242322222222122212121211122222111222121222122212121312254545521122123322233335644434343433333434343338CEFFCB8989CFDEEB55544544342333343323233445444FFFFFFFFFF",
"232333221222221212122222121112222212121212122212221211111245455622143213422325344755444434343434333434379ACFFEAA89CCA8A9AA5444466433233334332334454444FFFFFFFFFF",
"32323322222221222122222121111122211111222221212121212111114455763257312243334443465345744333433343434356A7DFFCAB999976AC996334666443323333434343434443EFFFFFFFFF",
"2323232212221212121222121212111222111212222222221212121111245678675513322523444335665554343434343434344969CB8AAD9978765A986645665544322323343434444434CFFFFFFFFF",
"3232222121212111112222212221112121212121212122212124311111113343443223423432332234456455534343434343467777C9757BA7778654776664666543322233323343445543CFFFFFFFFF",
"232312121112121212122212221211121222121212121222222752111212343433322335224335333534544554343434343447976799655798777733475554565543232334332343355544BFFFFFFFFF",
"223221211121212121222121222121112121212121222121222331111121333333313344413443223444554455434333434369965788644787766443455334456542322232333343434453AFFFFFFFFF",
"2223221212121222121212122212121112221222121212122212111112112333343233243312232324454435464433333434996558794457987744445774343553322333232334344334549FFFFFFFFF",
"2222321121212222212122212121212021212121212221222222212121112343454333435321322233432233455343434345966478755366787443545685445333323333323343333333539FFFFFFFFF",
"122222122212121222121222121212111212121212122222222222121211123433333444442332122344222345544434344A865487445467686434654678566533343334223333333334549FFFFFFFFF",
"2222111121222221212121212121212111212221212221222222222121111122323343443322421123433222445543434396755585647467777556765577657644543233223343333233549FFFFFFFFF",
"12210112122212122222121212121211011212121222122222122212221211133333343312123212133333223545443436A7554675444457777767674567666665442222133433333334457FFFFFFFFF",
"2110111121222122222122212221212110212121222122222122222222212111223332212121422122333232333354445956433665657456767567775466757665543231234333333234558FFFFFFFFF",
"120101121222122222121212121212111112121212221222221222222212122223331212221232121233222223233545A734445967655635775565775446666666444322233434333334457FFFFFBFFF",
"2110112122222222222222212221212110112121212122222222222222323221332121212122322112323222322233589454338777655543565555777333446666544332334444433343548FFFA3335F",
"1101111212121222222222121212122211021212111222122222222323233332222212221222321212232222232223597344468766554645454546776335564544333322343444443444458FFF53332D",
"10101111222122222222222121212111211121212111222122222122334343412221212121223121113222223322223A7465688775554553634456865332444455534322233344534344448FFF83423F",
"1101121212121222222222122212111212011211120212122212222223344432211212121222321112232223232212274556798755553564344347775435576434333323343334453444459FFF76535F",
"1010112122212222222222222221211121112111111121212221222232334342212111212222312111222222332122464576977654433464434434775444677565544432323333444344548FFF7766AF",
"0100121212122222222222222212111211111211111112132212222223333432221212121222221112122212231213454768754443332345353444466635576666644534444333344434457AFF76677F",
"00001121222122222222212221222111112111211121112121212122223333412222212122223211212222222221233346786554433233445454445666445675666454444444333333434599FF877677",
"0000121112122222222211122212121211121112111111122212122212232332232333122223221112222212231213343775466655433345446743545634466666544444344433333334343677776766",
"0010211121222222222111112122212111112121111111212221222122223333233333322222321121222222222123345566667775534466446664436544557566545343434332333343432266666666",
"0101111112122212221211111212122211011112111111121222121212232333233333332222221212222222221223344677665666544468456766645633466556445344344333233333331355565656",
"1011211121212122212121111111212221101121111121112122222122213232313343333222322121212222212132444576866565544477557665745422334344434343333223223233323456556555",
"0112111212121212221211111112122212111212111211111223221222222323223323332433231212221222121223354457875555443567456766642322233334233323232223332323234448555555",
"1111211121212122212111111011112221111121211121101122323221212232312243323233322122222221212232435455876554444466546665633223333333333332323233435433356458655554",
"1111111212221212122212121101111212121111110112110112232222122223221323343223331212121211112223334445544544343556555656443324464545353433343433343433365457554545",
"1111111121212121212121211110111122222111111121101111222221222232311232223222322121222111212232335454544332333456635664434234554545444444444333334432555445544333",
"1111121112121212121212121211011112222211120112111112122222122223221223233323231112122212122223344545443543332334533454333235554546453534444434343433454436532212",
"1111212111212121212121212121101121212221211121111111222222222222321133323222322121212121112132334454533332334443423333433244555455443444444434333332544447742121",
"1111111112121212121212121211110111122222121112111111122322221222231222222223221112121212121223344545442443233445543323332235554456442434454545332322344456452211",
"2111211111222121212122212121211011112222211121211111112222222222322122453232221121212111122122445554432243445443444232332244545356533333433333323232234465345121",
"1111121112121212221212221212121101022222231112111111111222122222222222683223221112221111121212234555442334355655443333332334333345432323233433233333223454455311",
"1111211111212121222122212121212110101222222121211011112122222121212121362222221121211111212111213454532233455555643342223343333344422222344342233343323354445421",
"1111111112121212221212121212121211011112222112211111111212221112111112122222221212121111121111121234332334454545552442223445243345422323355533222334223444445411",
"1111111121212121222121212221212121101122222021211011111111211111111121212121221121111111211111212122322234555455543432223355435344423233545454223232223345534421",
"1111111112121212121212122212122211111112222101120111111112121111111112121212121212111111111112122212222334465555543422133455433425334324555554222322222235443212",
"2121112121112122212221212221212121222221212011211011111111211111111121212121211111111111112121212222222244556555535331223454533334344333555553313333322245533221",
"111112111112121212122212121212221222232212110112111101111212111111111112121112122211111112121212221212233445455544433213344445334434442355454322243332234543358C",
"1121111111212122222222222121212222222122212010111111111111111110111111112121224333311111212121222121223244434344454232222234534343345432545433312343423344323BCD",
"11111211121211121222222222222223222212111211011211111111111111011111111112123434342321121212121212122223443478753433231213343444343444223333332212343323353346FF",
"111121211121212121222222322222322221211111211011101111111111101010111111213333334333322121112121211122334333866533323221223355543333332132323321213232223335FFFF",
"111112111112111212222222222222222222121102110111121211110111111111011111122434233434322211121212111223343323433323232322133545554223232234232312221212222338FFFF",
"11111111112121212122222222222221212122101020101111211120111111111010111122224332333232222121111121212343323243323222322222444454433233334442312222223454423BFFFF",
"11111211111212121222122222222222221212110111011111111111011111111101111323332434232222222211111112233433222334453223233223344544334544433543221212246656544FFFFF",
"11112111211111212121222222222121222222211110101111111111111121111010113233333333323221222121111122223232223344665334765332334443435554434434311121355455656FFFFF",
} ;
