/* XPM */
static char * xpm = {
"160 120 16 1", "0 c #000000", "1 c #111111", "2 c #222222", "3 c #333333", "4 c #444444", "5 c #555555", "6 c #666666", "7 c #777777", "8 c #888888", "9 c #999999", "A c #aaaaaa"
, "B c #bbbbbb", "C c #cccccc", "D c #dddddd", "E c #eeeeee", "F c #ffffff",
"3434343444344444444445444545454545454555555555565666666767676777787778788888898989999989888CEC965555454555454545444544444445589A88776766666666565655555555555545",
"3333434343444444444444444444445454545455555555656565666666667677777777878887988898889898989CA8655454545444544454444443434343445699977666666665656565555555555454",
"233444343434443444444445444444454545454545554555555656566666676767777778787888888888898889BB76454545454545454444444434443434343469998766566656565655555555554545",
"323344444344444444444444444444544454545455555555556555666665766676777777778788878888888888D864545444544454444443434343433333333346888887766565655565555455545454",
"21122334344434344444444544444544454545454445455556555655555666666767677777787878788878888CB655454444444544444434343433343333333334456887666656555555555555454545",
"22421233444443444444444444445444545454545454555555555555556566656666767777778787878787889B6554544444444443444343434333333333333333444467766565656555545555545454",
"3434321223344444343444444444444545454545454555555555565556565656666767677777777877787878B75545454444444444343433343333333333232323233444576656565555554555454445",
"4344444222334444444444444454545454545454545455545555555555656565666676767777777777878788A55454444444444343434343333333333332323232323363336565656555555554545454",
"344444444312244444444444444544454545454545454545455555555555565666666667676767777878777A754544444444443433343333333333233323232223222333233556565555554545454544",
"4443434444422233444444444454445444545454545554545554555565556565656566667666767677777789644444444344434333433333333332323232223222222234323355655555555454545454",
"3434344444343212344544444544444544454545454555455545455555555656665656666667676767677779544434343444343433343333333323232323232322222333332456555555555545454544",
"4444434443333332223354445454445454545454555555545455545555556555656565656665666676777786434344434343433333433333333232323232223222222232333233555555545455545454",
"3434343333232323321234444544454545454545454545555545554555555555555556565555556667677786443434343434343434333333332323332322222222222222233323465545554545454544",
"4333333332323232323133444444545454545454555454555454545555555555555555555555555566767685434343434343334333333333333233323222222222222221323232345555555554545554",
"2333233323232323332434454445454445454545554545554545454555455555554545455545555556676785343434343334333333333333232323232322222222122212222323245555554545455545",
"3232322232322233334444444444545454545454555455545454545454545554544454555455555555767674434333433333333333333332323232323222222221222221223344346555545555545454",
"2223222323233333344444454445454545454545454555554545454445454444444545454555554555676775343334333333333333332333232323232232222222222212222334335656565555454545",
"3232322232333344444444544454544454545454545455545454544454444444444454545455545555767674434333333333333333333333323233433232222222212122223234525555545554545454",
"2333222323343444454445454545454545454555554545455545444434444444454544454545555556676765333333333333332333333333333346454323222222221222221225544555455545554545",
"3232323333444444444444544454545455545555545555555443434343434444445454545454545555766674433333333333333233333333334465544332222222222222322234645555555554555454",
"2323233434444444444545444545454545454555555555454434343434444444454544454545455556666765333333333433333333343333444555543422222222221223332225565555555545554545",
"3232334443444444444454545454545455545554555554555343434344444444545444545454545555766675333333333332323333434344535555434332222222223233432234756555555455555454",
"2323344444444445444545454544454555454545455555555434343444444444454445454545555546666766333333333333232333334445445555445533222223233334342225665655555555554545",
"3343444444444444445454545454545454555554555565555343444344444444445454545454555555667676433333323333333333434465435564456443323232334344543134656565555554545454",
"3434344444444444454445454545454555455555555655554434343444444444454445454545555556676766442333233333233333345655445554465543232323354445453225666655554555554545",
"4343444443333344445444545454545555555555655565554343434443444444444454545454555456667675433333333332333233446564435555556543323233545454553245666455545555545454",
"3434343433232323344545454545455555555555555655553434343444344444444545454545554556676666343333233323233334456655445543355544232335454545553346555555555555555545",
"4343433233333233445444545454545555555555656565654343434444444444444454545454545556767675433333333333323344556565445542556553323344545454554466555555555555555554",
"3434332333343434454445454445555555555655565656564434343434344444444444454545554546676775333333332323333445565655445543565554332345554544445556565555555555555545",
"4343434343434344444454545454545455555555556565654343434343444354445454545454545456767674433333333333334456656565535563556554434455555443337565655555655555555554",
"3434343434343444444445444545554555565655565656563434343434344444444444454545454557676765333433333333344666665655444656565645454545454544335666565556555656555555",
"4343434333434444444454445454545455555555656565654343444344444344444444445454545556767674444333323343556666666665544565656554555455555555425565555565656565655555",
"3434444434344444444445454545454555455656565656553434343434443444444444444545454547676765454434333534566766666656445656555545554555454545335555555556566656555544",
"4343434444444443444454445454545555555555655565644343434343444344444444444454545456767676655444434555767676766665655565555455555554545344346555655565556554434343",
"3434344444344445444444454545454555555555565656543434343434343444444444444445454547676779654555454666676767666656565556555555554545454434455555555544343445565555",
"43434444444444544454544454545455545555556555656443434343434343444344444444545454579776A8656566666676767676766666666555555555555554555454555443434344667666766555",
"3434344444444444444444454545454555455555565656543434443434343444344434444545454568566987666667677767677767666756665555565555554555555544333445565666677767776666",
"4343444444444444444444545454545554555555656565634343434343434444444444444454545585434576667676777776766676666666666555555555555554655454656565656566778788988776",
"3434344444444444444445454545454545555555565656543434343434468A997755444445454546454433466777776777677767666666666655555555555545555555566667678867777889999CB977",
"4343444344444444444444544454555555555555656565634333434356889898999765555455557554333334777777767676667676666665656555546555655554555476779889878875668ACDFFF986",
"34343434444444444444454545454555555556565656565433343467655545454568765556556633333333335778787767676766666656565655555655555545555545678A76777734587766BDCB8756",
"3343434344434444544454545454555455555555656565534333465443433343334456645567533332333332357787877676767666666565656555655555555555555478737697423576777655666665",
"3434343444444444444445444545454555555656565656543334543433333433343434464445443333233333346778777767676666565656555555555555455555554578577943134556467644466656",
"3343434444444444444454445454545555556555655565533344433333333333334333434443343332333333334677777776766666666565555564555555556555534487678431234353443343435565",
"3434344444444544444545454545454555555556555656443334333333343433343334332345333333333323333566676767676666566656555555555555555655443455554322233433332234333566",
"3343444444444443545454445455545555555565655553323343333333333333334333433343533232323232333366767666766665666565555455555555556555445453453222222233233232323355",
"3434344444444444444545454545454555555556553323222333333333343333343334333324443333333323232346576666666656566656555555555555565555454544332212222222232222222335",
"3343434444444444444454545454545555655565653221223233333333333333334343333233443232323332323334556666766565666565545455556555555555433443422122222122222122212222",
"3434343434444444454545454545455555555556552412332323333334343333333433333323344333232323232334466667666666565656554545555555555556444424221212221222122222121212",
"3343434344444444545454545454545554556565543433323233333333433343333343333332335432323232323233456566666665656565545455555555555554533333222122212222322222222221",
"3334343444444444444545454545555555555656542532332323333334333334333333333332233533232323232323355666666666665655555545565555554445533222121212121222232222222212",
"3343334344444444444454545454555555555565633322323232333333333343334333333333223342323232322232335565656566656565545454555555555345533222212121212232333232322232",
"3333343434344444444444454545455555555555443323232233333334333433333333333333233333232223222223334556665666665655444545555545554445533222121212122223233333232323",
"3333334343434344444444544454555454433333332232322222333243434343433333333333323333322232323222333455656666656554535454555555555455523221212122222233333343333234",
"2323333334344444444445444544343333343544432223222323333334343434343333333333322334233222222222232445565666665655444545555545554555432432121222232323333333333335",
"3233323333434343444443333233334444545554322232323232333343333333433333333233322343323232223222223245556665656564544454545465555555424332312122323232333343334356",
"2323233334343434333323343444454545454443222323222323333333233323333333343333332323322322232322232335565656565654344445454555555555333333221223232323222334343467",
"2222323333333332334444444444434444544432223232322232333232223333323333333333332232323232222222323233556565655553434444545455555455423332322222323332322233334477",
"2223232223333334333334443444444434444322122323222322332333232334332323233333333223332222232222232333455656555555333444444555565555333322232223333323343323343488",
"2222323232333343334333434343434454544221223232322232323233323233323332333343333232323222323222222232455555555555544343445455555555423332333233333232334232333265",
"2223222323332323333333343444344445442212222322222333232333232223233323233433332323332222222222232223355545555555554444344555555555432333333333333333333223333366",
"2232323232333232323333434343444444422222222232323222222233333222333333333343323222323222322222222232444333555555555455545554555555522343333333333233433222333465",
"2323232323232323232323333334343434222212222322222223232333333323233333233333332322232322232222222322243322455555455555555555454545432333333433343333333323333555",
"2232323232323233323332333333433342222122223222322232222233333332323232323232323222323232222222222232223222345554545454545554555555423233323333334333323233437695",
"222223232323232323232323332333343222122223232323222322232333332323233323233323232223232222222222233322232224454444444544454545454583223333333334334433332345FE97",
"323232323332223232323232323233323221222222323232223222223233323332323332323232322122223222222222223322223233544455556565534454545992223333333333434343334345FB77",
"344423232323232323332323232333322222221223222222232322232323332333232333232323222223222222221222222222223322455545555545453444456CB5233334333334344433333446D865",
"33445333323233323332333232323332222122212232322222322222323342333332223232223222212222222222222221212132323334544444544454444456CDA6333333434343444343334458DFD7",
"33344544343333233323233333333322221222122222222223232223222323333333222322222223221222122212252212121223232334454444444445559FFFFC8733332333333444343334456AFFFA",
"32334444444343333332323232333222222122212222223222332232322233333233323232222222212221222222232122212234423233444454668ACEFFFFFFD9854332323333434343334456FFFFFF",
"23242335454444343333233323232222221222122322222223232223232323333333232223222222221222122222222212121223333223246FFFFFFFFFFBB99C9874332323233334443333345BFFFFFF",
"32333222545454534333333232322122212222212222222222322222323232333333323222322122221121222121222121212123332223338FFFFEFFFFFF8B877654333232323233434234446FFFFFFF",
"23233222355445444433332323222222221221222222222222232223332322333333232323232212121212121212121211121223332223444CEDBCFFFFFFF875545434333323233334333335FFFFFFFF",
"323242214354545454433332322222222122222122223222223232323232223333333232223222212221222121212221212122323232233239BABDDDFEDDD95444545343323232334343335FFFFFFFFF",
"232333213443232344443333322222222212221222222222222322232322222323333323222222121222121112121222111212232332122224AAA9BFCB999C753435543443332333343434CFFFFFFFFF",
"32323320335A42222232333322222222222222212222322232223122323232323333333232322221222121112221222121212222323222322378A8A897ACD9A64255654343323233334344FFFFFFFFFF",
"23232321338D7322221212122222222212122212222222222222222223232223233323332322232212121211121112121212222323242432233BB8677AABBB766456553434332323333447DFFFFFFFFF",
"32322320368CE3323222212122222221222121112222222222323122323222323233333232322222212121212121212121212122323323322237B875777545965545545332323333334488EFFFFFFFFF",
"232323212869B633453222112222222222221212222222232223222223232223233323332323232222121211121112122211122223221332232389765545335634455543233433332346688FFFFFFFFF",
"223232312332222222222221222222223222211122222222322222223232323232323333323232222221211121212121212121212221223332329A966344435853335432234353323354545FFFFFFFFF",
"2223221212121212122222111212222212221212222222232223222223232323232333332323232222221211121112112211221322121233232347874335544684343423333454232345554DFFFFFFFF",
"21101011112111112121211121222221212111123222222222222222323222323232333333323232222221112121212121212222211121322232358643357445775663324333532222356556FFFFFFFF",
"11010111111111111111121112222212221212122222222322222223232323232323233323332323222221111221121212111213111211232323246844567635685666344322321322345646FFFFFFFF",
"101010101111111111112111122222212221111222222232222222223232323222323232333232322222212121212111211121322111112232322257656576446675665443323133435455467FFFFFFF",
"010101011101111111111211121222232211111222222222222322232323232323232323332323222322221112111212121112222212111222222236555666355676666545443234454555466FFFFFFF",
"101010101010101121111111112222222121112222222232222222323232323232323232333232223222222111212111222122222111111122322135455666434456666555655334435454447FFFFFFF",
"010101010101111111110111121222122211111222222223222222232323232323232323233323232323222112111111121113232211111222221234454666332334565655555346443434344FFFFFFF",
"101010111010111011111111112222222111112222222222223222323232323232323232333232322222223111212111211122222111112122212233535666423355644343444233433243324FFFFFFF",
"010101011111111111111111021222121211111222222222222222232323232323232323332323221222122211121112121112221211111222211233345665332334455544444444333333344CFFFFFF",
"1010101010101111111011101122212221101122222222223222223232323233323333323332222121212122212121112111222221111111222122343366755334556443433443434333534346FFFFDB",
"0101010101011101111111111212121211011122222222222222222323232333232323232323222212121212221211111212122211111111121212343336664334456556554655543434443458FFCA88",
"101010101010101010111110212221212110112222222232322222322232323232333333323222212121212121212111211122222111111122212243443465633345656664455555534453349BCA8776",
"01010101010101011101110111121212110112222223222222222223232323332333233323222212121212121212111112122222111111121212123443354554343555666445465643454437BB986666",
"1010101010101010101010112111211111111122222232323222223232323232333232323222212121211121212121112111222121111111212122346434336333445466644455554245436AB8766565",
"0100000101010101010111121111121211011222222222232222222333232323233323332222221212121112121212111112221211111112121212366644245434344456554555543345359B97666656",
"101010101010101010111111111111112111112222222222322222323232323233323332222221212121211121112111112122211111111122212245655544422233435664545453323348B976666565",
"01010101010101010101121112111112110102222222222322222223232323232323333222221212121211111212111111121212111111121211123666564422122223344333233222358CA766566655",
"1010001010001110101111111111111110101222212222322221222232323233333233323222212121211111111121111121212111112111211121356565423122222233323333312369CB8665656564",
"01010101010101010111110111111111111112222222222222222222232323233323332222221211121111111112111112112212111111121111122555553322243323243334343336ACA96556565545",
"1010101000101010101110101011112110101222222222222222222232323232323332323221222121111110111121111121212110101111211121346554333234434445534444436ABA866555555454",
"010101010101010101110101011112111111122212222222221222232323232333232222222212121211111111121111121212111111111211111223554434233444334653554547AB98665545554544",
"10101000101010101111111010111111101022222222223222222222223232323233323222212121211121111111211121212121111111112111213234333222444343565355548AA996655454545444",
"0101010001010101110211110101011111011222222222222212222223232323232323222222221212121211111112111212121111111112111111232333321334343456344434489976554444444444",
"1000100010101010111121111010101110102221222222222222222222323233323232322221212121212111111111112121211110111121211121233233212344343455344343335675545343434443",
"0101010101010100110211111111110111012222222222222222222222232323233333222222221212121211110112121332111111111112111111112322121334343544343323222455444444343434",
"1010101010101010111121112111111110112222222222223222222222223232323232322221212121212121111111112331211111111122111111112322224332323443333332322244444343434343",
"0100010101010101110212121111111101022222222222222222222222232323232223122212121212121211111112121211121111111212111111111322233424233433332312222224343434343444",
"1010100010001000100121212111211110112221222222222122222222222232323232212121222121112121111111111111211111111121111011112232224442433343322221222122334333434443",
"0101010101010101110112121112111211122222222222222222122222222223232322221212121212121211121212111111111211111111110111121223234443333323222212221212233334344442",
"1010101010001010101121212111211120112122222222222222212222222222323222222121212121212111212121111111112111111121111111112222334443333222222122212121234333334441",
"0101010101010101110112121112011111122222222222222212122222222223232322221212121212121112121222111111111111111211111111122223233333322322221212121212133323332332",
"1010101010101000101121212121111111112122222222222222222222222222323232222121212121212121222221111111101011111111111111213332222232223222212122212121223343322242",
"010001010001000101011212111111111112122222222222222212221222222223232322222222222212121222221211111111011111121111111112232322221222222222121212121212333434347D",
"101010100000000011112121111111211111212121222222222122222222222222222232322222222122222222211111111111111111111111112121212122322122222221212121212111334343439E",
"01010101010100010101121211111111111212221222222222121222122222222322222323232322232222222212011111111101111211121112121111111212222212121212121211121234433347FF",
"1010101010101000110121212111111111112221222222222122222222222222223222323232322222222222222111111111101111212121222122222121112122222121212121212121213355434BFF",
"0101010101010001110212121211111111121212122222222212121212222222232222222222222222222222221111121111111112121211122222222322121212122212121212121212122435443FFF",
"1010101010001010111121212111101111212121212222222122222122222222222222212222222221222122212111212121222221211121212222222121212121222221212121211121113332345FFF",
"0101010101010101111212121111111111121212122222222212122222222222222222222222221212121212221112221111122222221111111212221211121222221212121212111211123542345FFF",
"1010100010101010111121212111101111212121222222222222222222222222322222222221222121212122211112212111212221222121112121212121112221211111212121212121214454547FFF",
} ;
