/* XPM */
static char * xpm_data[] = {
"160 120 16 1", "0 c #000000", "1 c #111111", "2 c #222222", "3 c #333333", "4 c #444444", "5 c #555555", "6 c #666666", "7 c #777777", "8 c #888888", "9 c #999999", "A c #aaaaaa"
, "B c #bbbbbb", "C c #cccccc", "D c #dddddd", "E c #eeeeee", "F c #ffffff",
"3445455555555545555555555555565556565656565656565656565656565666565666566666566666566656565656565656565656565656442467666533233445555555554545454545454444344434",
"3344555455545555545555555455655565655565656565656565556566656565656665656665666565656565656565656555656555655554424676776686654222334455545454545454444444444343",
"1345454545554555455555555455555656565656565655565655565556566656566656566656666656665656565656565656565656565544245668777866665544232234354435454545444434443444",
"1344545554555554555455555455555555556555656555656565656565656565656566666566666566656565656665655565555565556442467697666666655555544331223354545454445444444443",
"2334454545455545554545554555555555565656565556565655565656565656565656565666566666565656565656565655565655554434676766686666665545443434333445454544444444344444",
"413454545455545554545554545565555565556565656565656555656555656565656565656565666666666565656565656565656554423776677777D765666554534343334454545444444444444343",
"3234454545554545555545455555555555555656565656565656565656565666565656566656665656666656666656565555565555443367667868788766665644445433354545454444444444444434",
"4323445454545554555555555455656565556565556565656555655565656565656565656666656566656665656665666565555554433676667566789665655454434344545454544454444444444444",
"341335554545454545554555555555565556555656565656565656565656565656565656566656666656565656666656665656564433776B666767596659666555443445554545454444444444443444",
"4433445454555455555555555555555555655565655565656555656555656566656565656565666665666666656565656565566543388779877675656465678555434454545454545444444444444343",
"3442344545454555555555455545555655555656565656565655555656565656565656565656666666666666665656565666565433B78799777768555556555764354555454545454544454444444434",
"4452335455545555555554555555555565556565655555656565656565656565656565666566666666666665656665656665654338878689A886D877766B79A643545554545454545454444444444444",
"45542445554555555555455555455655555655565655565655565656565656565656566666566666665666665666565656565433986777779A67A9997667984445555545454545454545444444444444",
"7756235554555455555555555555656555655565655565656565656565556565656666656566666666666666666566666565433678777876656687788766534455555455545555545444544444544443",
"3446233555555555555555555555555555565656555655565656565656565656566666666666666656665666665666566654327767666666696966676766344555555554454545454445444545444544",
"4454545555555555555555555555555555556555656555656565656565666565666566666666666666666666656556666554287679B78768BF7566767853456555555554555454545454545454444444",
"45454555455555555555555655455555555556555655565556565656565656566656666656666666666666666666565655426768697A89AB665658666545565655555545455545454544454445454444",
"4454555454555555555555555555655565655565655565655565556565656566656666656666666666666666666576665427887796776BB77F7898754455656565544333335454545454445444544444",
"454555455545455555555555555556555656665656565656565656565656566656666666666666666666666666665665427888AAABA8A869A67CDF844555565555443433334545454444454545444444",
"5455545555545555555555555555556555656565656565656565656565656566666666666666666666666666666665542689D887AA9ABBA867BAE6446565655554334443435455545454545454445444",
"45454555555555555555555555555655555656565655565556565656565656566656665666666666666666666666554357CD987799897977676844465656555543344534444545454545454545444444",
"54545555555555555555555555545555555555556555655565655555656566656666656666666666656666666665543578E97988E78668B6A89455656565555444444444445454545444544454544444",
"45455555555545555555555555555556555555565656565556555655565656565666566666666666666666666655436B88AD89F987687858A64556565655565544454545455545454545444444444544",
"44555455555555555555555555545565555555656565556565656555656565656665666666666676666666656654348888889EC7AB8CD878645565656565656554544454555454544454445444445444",
"4545455555455555555555555655565555565556565656555556555656565656565666566667666666666666665536798A9B89878CBB9AF5455656565556555555454545554555454545454444454444",
"44545554555555555555555555555555655555655565655565555555555565556565656666656666666666666666666565566566AFEFEB54556565656565555555545555545554545454544444444444",
"34454555455555555555455555455555555556555556555556555655565655565656666666666666666657665666665666565656565BF556565656565655555555555545454545454545444544443544",
"4332323343445554555554555454555555555555555555555555655565655565656566666566666666666565666665666565666566656565656565656555655555555554545454545454545444445444",
"A665575655334555555555554555455555555555555555555556555556565656665666666666566666565656666656665656565656565656565555565555555555555545454545454544454444454445",
"6565666566624555555555545554555555555555555555555555555555655555656665666666666666666566666566656565656665656565656565656565555555545454545554545454545444444454",
"7666766877742555554555454545455545555545554555555555555555565656565656666666665666665666565666565666565656565656565655565655565555554555455545454545454544444444",
"67B786758B983454555454545454445454545555555555555555555555555565656565666666666666656665666665666565656565656565556555556555555555555454545454545454445444445444",
"258AA889987A3345454545454545454545454555455555455545555555555655565656565666666666566656666656565656565656565656565556565555555555555545554545454544454445454444",
"3355755677767244545454545444445454545554555455555455545555555555656565656665666665666566656565656554556555656565656565555565555455555454545454545444544444544444",
"3347666676566334454445454445444445454545454555554545554555555555555656665656665656665656565656554211121223455656555655555655555555554555454545454545454545444444",
"3337679575A88534444444444444444444445454545444545454545454555555555565656566656543444455656565411110111121223245556555655555555555555454545454545454545444445444",
"33346C7666666624444434443444444444444444454445454545454545454555555555565656665439CC7867444433110101010111122212355555565555555555555545455545454545454445454444",
"3332676666556542444344444344434444444444444444445454545454545455555555656565654377E9B7B9A99421101011101122211221225555555555555554555455545454545454544454444444",
"2333375767587763344434344434344434344444444444444544454445454555455555565555543C9AAC9DACA62201011111111212131212222435555545555555554555454545454445444445444544",
"322233334354658433434343434343434343434344444444444444444454445454555555556543AFCCCCABAD611000101011112231311120122254445555555555545554545454545454544444444444",
"1212232333333334333434333433333433343334343434344434444444444545454555555554388CFFBEFFDA211001110111012334322212232235455555554555555545455545454544444444444444",
"2122222222223232333333333333333333333333434343333343444344445444545555555543B887C9DCACF8211011111111114454333111223334635554555455545454545454545444444444444444",
"121222222222232223222223232323333333333333333333333434343444444445454545442998989DDFBFD3111111111112234666432111121323544545554545454544454545454444444444444433",
"111122222222322232223232223232223232323333333343433343333343434344445454428BA9BBBBB9CFA2111111112121247887743111111122343455545454545454544454544444444444433222",
"111112222223222323232322232333232223232223232334333434343434343444444544386EA98AA9FBFB32121111122213369A88754212221112343445454445454545444445444444444433222334",
"1111211233333232323232323232323222323232322232323232323233334343434444436888999AFFDE732121212121112358AAA8875213432222434454544454444444444444444444433222434343",
"111111122555443333232323222323222322232323232323232323232323233333333434444445668BB6431112111112122579AAA8652225454323333444444444444444444444344433233445444434",
"111111212366655443323232323232323222323233323232323232323232333232323333333343434443411111101111224578AAA8733256666533422344444443434443444444443233545454544433",
"1111121212577756543323232323232322232223232323232323333323232323232333333333332333233111111101112335689A99875777776644322334343334343434444444343433444554443334",
"1111111121378776654333323232323222322232333232323232323233323233323332323332333232323110111011112235779999988777867673334343434333333333334333434333334343334333",
"1111111211169988765444232323232323232323232323232323232333233333233333333333233323232211010111112346798999888877776664343433343333333333333333333333333333333433",
"111111111122AAA8876553333233323232223232333232323232323232333233333343334333323332323110332111212478989999999888878763434343434333333333333333333233333333333233",
"1111111112117BAA987755443324332222232323232223333323332323333333333444454544443333232215465211123689898989888988888864343434343433333333333333332323232323232323",
"1111112121113ACBA99765534333322232223222323232323232323233323333434465556676655443332134565321224799989886646677889994434343434343333333333333323232323232322232",
"11111111111219CCBA98765533342323232223222323232323232333333333343445766677777666554411557855322358998987665443356889A5343434343433343333333333233323232323222322",
"11111111112114FFFEDBA7655333323222222222322222323232333332333344455597778888877665542165988542346898888776544343667675434334434333433343333333333232323232323222",
"11111111111112244567677655443322222222222222222223232323233334455667A8898999898877551157544653357989887644332344565335443434343434333433333333332333232323222323",
"11111111111121334332322121233222322222213222222232323232333344556678C9A9AAAAA99887762066566684458898987553512245773233444343434343334333333333323332323232323232",
"11011111111111233433231212342122221212223323333333332323333445566789CAABBBABABAA99873146695698477888898876422456792234343434343434343333333334332323232323232322",
"11111111111111201011112221321121222121223010101122223343445465678899CABBCBBBBBBAA9974126787698667788888765543476793344434344444343434343434343434333323232323232",
"11111111111112110001002212554422221111111111011111111111122335689BCDDCCCCCBCBCBBAA995205798778677877898765444677685544344444444434343434444544443434333333233223",
"10111111111111111010002222766444433332322221211120111011112122223236A46799ABCCCBBAA98111578777777777888787888777779943434344445444434444445455544444433232323232",
"111111111111111201000122236765454434232333233322111101111212222333478211111223233446521135676767777878788899877778CDAA9977578FFF64444445455555554544443333232322",
"101111111111111110101032237765544443333332333231111010101266666665545332322232212222211034445666778777878777668787AB8899AAFFFFFFF4343445666565655454544333323222",
"110101111112121111000123257766554433333333332331111111010467799AABBCCCBBA9886632232323113544466778777777665546787779677778FFFFFF63233433344444454444444433333323",
"11111111111121111000003226877665544333333331233110111010047798AABBBBCCDDDDDDDD8354444421467555667786766664455343345676777778899543313344444333432222222222222221",
"010111111111111210000123277876665544343333211322110111000578899AABBCBCCDCDDDDD8656555522466656676777666544455533332588888888887543233334444433332212221212121223",
"10101111111111211000113237887766645443333210233111101010157898AAAABBCBCCDCDCDC8665655531566665666676666544656553423677889898988453333343333333432222222221212232",
"111111111111111111000223288877665544433444322332111101010678899AABABBCBCCCCCCC7656555532566765555666676544454544424666666769998544443444443423332222123322222222",
"10111110111111112465323237878776655444436654433111111010168899A9AABABBCBCBCBCC756665655466766554556676654354555134656666767AA99453444444545433423221112232222122",
"110111011111111115783322287877676655444456566422010101000778899AAAAABBBBBCBCBC666656554467676544455666665544466356566667677BACA554456766555534332222122222221222",
"1110111110111121149A43223787877666645444445654311010101016878899A9A9AABABBBBBB656565555577766554445566656664447776666676778BCFF664546665545433323221213222222221",
"010111011111121113AE432337777766665555454234442101010001077888999A99ABAAABABBB665656564777676655454556666656556666666667788CCFF755455655454534332322123222222212",
"101111111111111122BE423237877776756555553144442113201010168788989998A9AAAABAAA656577766687766554444455666565544466666679BCCFFFF765656665545433423231224222222121",
"0101111111011112127A332237777766666656551345451346A301011778898987689A9A9AAAAA5659BDCB87776666554434455666554436555666665CFFFFFFFFFFFFDCB98634322322123222221212",
"10101111111111111132222256778776666676651454542011421010267787883232799999A9A9656ACCB88777767554434344666666656854667675556788BBDDEEFEFFFEE933322231223222222221",
"010111111111111112222223477ECCBBAA8877662433342201161101399A998822223889999999565ACC3777776766553333344556677899445767754657898989999989886533322222133222222212",
"111111111111111111223222568F423244679B764432333310131010457ABDFFFFFEC9989898986569CC6787767665544332323354556565225677845565BFFCBBBAAAA9988763322222223222212122",
"111101111111111112132222577F432322221C7644543413011401014688888989AA8888898888787AA6787777676654443322222344333422577875465546DFFEDEDDDDCCCCCB622322232222121212",
"101010111011111111232232668F533232323D74436343331021101055AB988899BDF88788888788874788877776655554432121353332244257876455545456DFFDEDDDDDDCCCD95222223222212221",
"1101110101111111121227A8668F432323233E3413344433011111111233011112248768787877763338888877676655454432127E555324435FFF7556554545469AAAABBBBBBCBBB622232222121212",
"101111111111111121122678538E433232333F3112544432101110101021101010101124778774322238988776766565544333339E555334436FFF755555545455766676667565655432332221222121",
"0101011111111111121214452233222323233F2104342433110100000111110101010101676423222227898877665555443444465B454434344566455655454546666666667656655644352222221212",
"1110111111111111112531321011223124434F21155653210000001010111110101010106432222222227887776565545444545643344333345111446554545455766676677665555FFD643221211111",
"010111110111111111143101000111010238BE21034212221101010101111111010101132222132222222877776655554545555633232345454101455645454546666766676656555AB6221212222212",
"1011111111111111111242100000101011113220111011112110101010111011111232222222222222222376667665545555545433322233554112446554545456778777767676666221112122222121",
"0111011111111112111212010101000101110222110111011211010001011112232322122212232222221226666655555655443334322323453223444545454547777767676666665211111221221222",
"1010111111111111111144211010001000101011211111111121101010112232222122222222222222222121566665556554433233413222334233423454545556777676666565655121112121112222",
"0111111101111111121232121001010101010001010101110101110101232222222222122212122212222212246766666655432333322312343224333335454557676754444455563111121111011225",
"1111111111111111112121121000100010100000001010101010101012212222222221212122222221222121213666766665322333313322333232333344445456766643434355664222211010101158",
"1101111111111111111232121100000100010101010101010001111222121212222212121222221222222212121268787774222323222413342333333434343457666643322336CA7776631101011458",
"1110111110111111112147842100100000112136742131100011111121212122212121212122222221212121212178888842212233313323432233323332434466666543212121212454411010102533",
"1111111111111111111236663543232212AEFFFFFFFFFFFC9742111212121212122212122212121212122212121268899722221333222314342323223323343446665655121211121455110101012223",
"1111111111101111211135666666666667CEFFFFFFFEDBA88CFC742111212121212121222121222121212121332157999321222231313222223222323233334444544443111111111474101010113212",
"0101011111111111111226676766666767788ACEC98876445899641112111212121212121212222222121212131137897222222322222222122212232222233334321111021211111562010101121211",
"1010111111111111112125666666667676777788988887877787622121111121112111212111222221212122212126773232239B63223222212111222222323333433332212121112451101011112110",
"1111011101111111111226676667666767677778787778788888621211121111121112122212122212121212221215662222288994222222122112221212232334445AA9887732111521010111121211",
"11111111111111111111267676767666767777877777777777774121111121212111112121212221212221212121245422226776722221222121212121222232334347AAA99772211420101111212110",
"011111111111111111111556566667676777677777777777777722111211121212121212121222121212112212121352222577664222221212121222122223233434358BBA3222011111011111121211",
"101011111111111111112333334444656676777677777677777521112111212121211121212121212121211122222141214776643222212111212121112222233343335AB93221111110101111212111",
"0111111111111111111112232333333334344545566767677764111111111211121112121212122212121211121212122267665422221221121212111212222233332338984432110111011111121111",
"111111101111111111111111111122223233334343434344545211111111111121112121212122212121212121212221237564432121212122112111212122223221222257A975543110101010211111",
"1111111111111111111112121212121211121222232333343332121112111112121112111211121212121211121422122766676412221211121212111112132222122323346FDC964101110111121111",
"101011111111111111112111211121222121212121111121222111111111111111111121212121212121212121213368ABDDEEED92212121112121111121322222333343445443322010101011211110",
"110111111111111111111101010111111212121212121212111211111111111112111212121212121212121212126BCCCCCCCCBCC4221211121212011212232323333433344422111101010101111111",
"101111101111111111111110101010101011211111212111211111111111111111111121212122212121212221269AAAA9AABBBAA3212121212121112122323233323333334441101010101011211120",
"010111011111011111111100110101010111231111010101011111111211111111111111121212121212121212289A999888888863121211121212121212343333343334333455433211110102111211",
"101010111111101011111000101000101010322011101010002111111111111111212111211121212121212121479ABA86767776622121112121211111212233333333323368BABABA96201011211210",
"010111110111110111011001010101010101010101000100011111111111111111111111121212111212121212589BCCBAACCDCDDA221211121211011211121212222323379A9AAAABCC962112111211",
"11111110111111111111100010101000101010101010101011111111111111111111111111212121212121212368BBCCCCCCCBBBBA42211121212111111111212121222388978899BABBCBA642212210",
"0101010111011111111111000101110101010101110101110111111111111111111111111212121212121212265899888999999A89322211121211111211121212122238887778899AABBCCCA7322201",
"11101011101111101111110010101010101011101010101011111111101111111111111111211121212121213667777777888887753221112121111111101111212123888666777888AABBCCDCA53210",
"01010111011101011111110001010101010101010111010111111111111101111111110111121212121212125667677877666656432211111211110111011111121227787656667778899BBDDEDD9411",
"1110111011101011101112101010101010101010111010101111112111111111111111111111212121212123656899A9A999AAA982211111212110111011111111116787766565667788AAABCCEDDA51",
"01011101110111010111020111010111010101011101110111111211111111111111111112111212121212266669BBBBABABABAAA6221111121211011101111112136777665656667778899ABCCDDDB7",
"10001010101111101110121021111111111111111011111111112111111111111111111121112121222123667668A9A998988887742111112121101010111111112466877555556676778899BBCCDDDC",
"010100010111110111011300121112121211121211111111111111121111121111111111111212121213566667677877787777564211111212111101000111111114576777555556677778899AABBCDE",
"1010111010101011101012102121212221212221212121211111112111211111111111101121212121377666767787877565544221211121211110111011111011135567777555656676777898AABBDD",
"0101010101010101011113011212122212221222221222211111111112121112111111111112121213686766676999898999982212111112121101000111110111023456676655555666677889999BBC",
"1010101010101010101012101121222122222122212222211111111111211111111011112121212146778665657899A9AABAAA51211111212121101011101010111023456676645555666677888999AA",
} ;
