/* XPM */
static char * xpm = {
"160 120 16 1", "0 c #000000", "1 c #111111", "2 c #222222", "3 c #333333", "4 c #444444", "5 c #555555", "6 c #666666", "7 c #777777", "8 c #888888", "9 c #999999", "A c #aaaaaa",
"B c #bbbbbb", "C c #cccccc", "D c #dddddd", "E c #eeeeee", "F c #ffffff",
"3333343334343434344334444434343444443444444444444445454545444444444544454544454545454545454545454545454545554545455555444545454545454545555555555555565656566667",
"3333333333434343434343434443434443444444444444444444444444444444544444545454545454545454545454545454545454545454555455545454545554555454555555555565656566666676",
"3333343434343434333434343433344434344444344444444444444444444444454444454545454545454545454544454545454545455545454555454545454545554555455555565556566656566767",
"3333333333334343433343434343444344434444434444444444444444444444444444445444544444545454545454545454545454545454545454445454545454555455555555555555656566666677",
"2333333433343333343334343434344434344434444444443444444444444444444435444544454544454545454545454445454545454545554544454545454545455555555555555656565666676777",
"3333333333334343334343434344434343434343444444444344444444444444444444545454544454445454545454545454545454545454545454545455555454545455555555655565666666667787",
"2333343333333334343434343434343434343434344444344444444444444444444445444444454445454545454545454545454545454545454545454545454545454555555655565666566667677778",
"3333333333334333433343434343434343434444444343444444444444444454444354445454445444445454545454545454545454545454545444545454545554555555555555656566667676778788",
"3333333334333334343434343434343434344434344444444444444444443444444444443445444445454545454545454545454545454545555545454545554555554555555556565666666767777889",
"3333333343434343433343334343434343434443434443444444444444443333344443211122334444545454545454545454545454545454545454545454555454555455556565656566667677878898",
"333333343334333434343434343444443444443444444444444444454433231212233211010112244445455545454545454545454545455555444545454545454555555655565666666667677778889A",
"33333333434343333333434343434343434343434444444444444455434342211011101000101011223343445454545454545454545454545444545454555555555555555565666666767677878889AF",
"3333333333333434333434343434443444343434344444444444445644342211111111000000010112132224455545454545454545454545454545455545455555555555565656666667677778898AAF",
"33333333433343334333434343434343434443444444444444444454343221101311100000000000101133324454545454545454545454545454555455555455545555656565666666767777889899FF",
"3334333434343434343434343434343434344334444444444444455325220100030000000000000000011223344545454545454545454545544545554545555555555556566666666767777889899DFF",
"333333434343434343334344434443434343444444445444444445423221101010100000000000000000001133345454545554545454545554555455555555555555556665666676767787889899AFFF",
"33333334333434343434343444344434444444444434444444444531221101010000000001011101000100011223454545454555455545554545554555555555555656565666666667777888999AFFFF",
"3333333343433343434344434443434444444444444454445444433111101010101010101111111111111010113244545454545454545554555454555455545555656665666676767777888899ABFFFF",
"333334333434343434333444343444344444444445444445444444321101010111011101011112121212110101224545454545454555555445554545555555555555565656676767777889898AAFFFFF",
"33333343434343434343434343434444444444444444544454445442211111112111211121212121222221101011345455545554545455545555555555555555556565656666777787888899AADFFFFF",
"33343334343434343434343434343434443444454444444445444432111222222212121222122222222223220001134545454545554555454545455555555556555656565666676778888999ABFFFFFF",
"3333434343434343434344434343444344444444444444544444543122333332222122212222222222323332200011445455545455545454545555555555555565656566667677778888999ABFFFFFFF",
"33333434333434343434443444344434444444444444444544444312345766443322222222222223222323343210012445455555455555455545554555555555565656666667677788899A9BBFFFFFFF",
"3333434343434344434343434443434443444444444444445453322335ABC975433222222222222232323244543111114455545554555454555455555555556555656666667677878899A9ABFFFFFFFF",
"3334343433343434333434343444443444343444444444444422122339EFDA6533222222222222222323233456631112244545455555455555555555555655565656566667677878899A9ABFFFFFFFFF",
"333333433343434343444343434344434444444444444444433122327FFFD864323222222222222222223233567521212455555454545455545455555555655555656666667777889899AACFFFFFFFFF",
"33333334333434344434343434443444444444444444444443222223CFFFA75433222222222222222223233446783213344545555554454555454555555555565656666767777888999ABBFFFFFFFFFF",
"33334343434333434343434343434344444444444444445444211125FFFDA7543232222222222222222232334678621254455454555455555554545555555565656666667677888899AACDFFFFFFFFFF",
"3333343433343434333434344434443444444444444444454432123DFFEC9754332322222222222222232333368974124445555545455555555555455555555656666667677778899AABBFFFFFFFFFFF",
"333333434343434343434443444343444344444444444444544334AFFECB975342323232222222222222222245888531445454555454555555555555555565556665667677778899A9BBFFFFFFFFFFFF",
"333333343434343434343444343444344434444444444444443347EFDDCB97543322222222222222221111111368865246555545555555554555555555555556566666676778899AABBCFFFFFFFFFFFF",
"333333433343434343444343444344434444444444444454443289EFDCCB86533222322221222221111010101138966335555554545454555455555555656565666666767787999AABCFFFFFFFFFFFFF",
"33333334343434343434443434443444444444344444444445339BCECDCB75321112122222222222111111121115885536554555455555555555555555555656566667777888899AACFFFFFFFFFFFFFF",
"333343334343334343434443434343444444444444444444444289BCBCB64110101111222222322221222232323278644455545554555554555554556565556566667677879899AACCFFFFFFFFFFFFFF",
"3333333334343434333434444434443444443444444444444432699BAC72110111011222222223222222222323336955355555555555555555555555555656665666676778899AABCFFFFFFFFFFFFFFF",
"33333343434343434343434344434444444444444444444444325679AA5111211111212222222232222232323233596444545554555554555555555565556566666676778888AAABFFFFFFFFFFFFFFFF",
"33333334343334344434444434343434443444444444444444333569A832122212111212222222222222222323233964345555455545554555555555565656566667677879899ABCFFFFFFFFFFFFFFFF",
"33333343334333434343434343434344444444444444445444423458A63221212121211122222222212121223232366444555454555455555555555555656565666677878899AACFFFFFFFFFFFFFFFFF",
"3333333434343434343444343434344444444444444444444443244996322212121211111222222211111112122325853545544545555555555555555556566666676778899A9BDFFFFFFFFFFFFFFFFF",
"3333333343333343434343434343434443444444444444444443235AB632212121111011112122212111101011222396445454555454545555555555656565666676777899A9BBFFFFFFFFFFFFFFFFFF",
"3333343334343434333434343434443444344444444444444444235CC6321212110101011322121211010001011223794334554555455555555555555556566657677878999ABFFFFFFFFFFFFFFFFFFF",
"3333333333434343434343434343434343444344434444444443325CD5322121111010112432212121101111222233697232555454555455545555556565666666767788999ADFFFFFFFFFFFFFFFFFFF",
"3333333434343433343434343434344434444444444444444544235CD622121100010111364322221211122212122349942235555545554555555555555656666767788899ABFFFFFFFFFFFFFFFFFFFF",
"3333333333434343434343434344434444444444444444444444336DC531211010101112596322212122212122223346B43234555554555455555555556566666677778899AFFFFFFFFFFFFFFFFFFFFF",
"2333333334343334333434343434343434443444444444444444336EB7444312111111139C632223221212121223234695332545555545555555555555565666676778899ACFFFFFFFFFFFFFFFFFFFFF",
"3333333333334343434343434343434443444344434444444444437EC974322121112124DD5222332222222222323345884335545455545555555555656565666677788899FFFFFFFFFFFFFFFFFFFFFF",
"3333333334333334333434343434343444344434444434444444448EC9653323222222279622222323322222232333467A333545454555555555555556565666676778899FFFFFFFFFFFFFFFFFFFFFFF",
"3333333333433223434343434343434343434344444444444445A89DD8776554433221594222222222332222323233457952245454545555545555655565666666778888CFFFFFFFFFFFFFFFFFFFFFFF",
"3333343333343432343334343434343434443444444444444448668DCA998754332215842212221101231222232324456852244545454545554555555556566667777889FFFFFFFFFFFFFFFFFFFFFFFF",
"3333333333334343334343434333434343434444444344444443138CCAA9964332222531101122101121222222323344674133545454545455555555656565666777878FFFFFFFFFFFFFFFFFFFFFFFFF",
"2323343334333433333434343434343444344444444444444443278CBBA965322212122210011212121222222223233556343345554544555545555555565666677778AFFFFFFFFFFFFFFFFFFFFFFFFF",
"3333333333334343434343434343434343444344444444444452798AA99653322221211121111121212122222222333456435354545554545455555565656566667677FFFFFFFFFFFFFFFFFFFFFFFFFF",
"2323333333333433333434343434343434344444444444444452945A99653322121211111112121212121222232323345644554545454545555555555555565667677FFFFFFFFFFFFFFFFFFFFFFFFFFB",
"3233333333433343433343334343434343434343444443444454425997633222212111112111211111222222222233335643555454545554545554555565556666668FFFFFFFFFFFFFFFFFFFFFFFFFA8",
"232333333334333333333434343434343434344434444444344722497743221222121212221111111212122212232334564345454545454555455555555656666666FFFFFFFFFFFFFFFFFFFFFFFFFA88",
"33333333333333334333434343334343434343434443444444483247765221212111112232211111111121222122334356445454545455555454555555555566656DFFFFFFFFFFFFFFFFFFFFFFEEA788",
"33233333333333333334343434343334343444443444444444495B56764322121211122321111111111112122222233446554545554545454555555555565656464FFFFFFFFFFFFFFFFFFFFFFEDA7778",
"32333333333333433333434333434333434343443444444444467B7576432122211121211011101111211011222233335554545454545454545454545555656555579DFFFFFFFFFFFFFFFFFDCBA77787",
"232333333333343333343334333434343444344444443444444489547643221212121111011212231223210112222334465545454545554555454555455556555656566778AABFFFFFFFFFDDBA777777",
"3233333333333343333343434343434343434443444443444444675587533121212111111122423433332110122233345554545454545454545554555555555566667676777777767789CA8986677776",
"2323333334333334333334333434343434443444443444444444444468542212121100021223332333131101122223344655454545454545454555455555555656666767777878787767676666676767",
"3232333233333333434344434343434343444444444344444444435457643222222110112132222221101111223233445654545454545454545455545555556555656676767677777777777676767676",
"2323333334333433333433343434343434344444344444444444444447653222221211010001010101011112222233344654454545454545454545554555555656565666676667676767676766666666",
"3333333333333333433343334343434343434444434444444444444455754222222121112111101110111122223233435654545454545454545454545554555555656566666666667666667666666666",
"2323333333333433343434343334333434443444443444444444344445764322222222221111111111121223232333345645454545444545454545454545555556555656565666666666665666666656",
"3233333333333343434343434343434343434443444344444444445444765332222221212121112121222222223233445654544554545454545454555455555555555565656565656566666565656565",
"2333333333333334333434343434343434343444344444444444444444575422221222221212121212222223232333345644454544454455454545454545555555555655565655565656565656565656",
"3233333333434333433343434343434343434444444444444443444444476432222122212122212122222222323233445554545454545454545454544544555554555555556565556565656565655565",
"2333333333333334333334343334343434344434343444444444443444476533222322222212121212222323232333355545454544454545444545454545454555455555555556555655555655555656",
"3232333333333343333243334343434343434443434444444443444444447543322222212221212121222222323233446444545444545454545454545454555455545555555555555565555565555555",
"2323333333333333333433343434343434443434344444444444444444446643332323232222121212122222233333355544454544454545454545454545454545555545554555555555555555555555",
"3232334233334333333333433343434343444343444344433344444444445653333333433232212121212222323233456454544454545454545454545454545454545454545455555455555455555555",
"2333333323333333333334343334343434343444344444444434444444454754333334443433222212222322232334455444454545454445444545454545454545454545454555455545555555555555",
"3232323333333333333333334343434343434344434444444443344444444564434344544332222222222232323233546454545454445444445444545454445454545454545455545554545454545554",
"2323333333333333333334343334343434343444443434443444444444444466433434453322222222232322232234346544444544444544454444454545454445444545454545454545454555454545",
"3232333333333333323333334333434343434443443344444344444444444465533333443221222222222222223233447444544444544444445454544444445444545444544454545454545454545454",
"2323233333233333333333333434343434343434343434344434444444454446442323332212122222222222222333346544454444454444444445444544454544444444554445454545454445454545",
"3232323333323333423333333343434343434343434343434343444444444446543222222122222221222221222232346354544454445454445444544444444444444444445454445444545454545454",
"2323232333333333333333343333333434344434343434443444344444344447543322121212121212121212122223243344444545444444444544444444454445445545444445454545444544454544",
"3232333332333333323333334333334333434343444443444344444344434445643221212121212121212121222122332244544444444454444444444444444333213223434455544454545444545454",
"2323232323233333333334333333333433343434343434443444344444444435653322121211111111121211122223212334444544454444444444343333121111111111221344454444454445444445",
"3232333333323333323333333333433343434343444343434343434344444444754221112121111111111111212221111234444444444444444332222111111110101111211122444444445444444444",
"2323233323333323332333333333333333343434343434444434443444343443664322121111111112111212222211121224332334454444443312110101010111111111111112455544444444444444",
"3232323232323332333332333333334333434343434343434343434343444321565332212121111121212221211011112234201022334344432111101110111010101011112112333454434444544444",
"2323232333233323333333233333333333333434343434443444343444343101365432221212121222232222111112112224200102342234321101010101010101011111111112232354444444444444",
"2232333232333233333333333333333343433343434343434343434344432111266432322121222222222221101111112123300011333221211010101010101010101111101111212235544344444444",
"2323232333233323333334333333333333343434343434334434343434331111175543222222122223222211110112111212210112232111010101010101011101011101111111221223355444443444",
"2232323232323333333333333343334343333343334343434343434343431110166443323222222222212110100011212111200011223110101010101010111010101010111011212122224453434343",
"2223232323332323332333333333333333343434343434343434343434342101066544332322121212121101010002111212100112221101010100010101010101011101011111111222222345443434",
"2232323232323232333333333333334333433333434343434343434343444110046543323222212121211110100001112011101111311010101010101010101010001110101111211121212234544343",
"2223232323233323233333333333333433333433343434343434343444344311035543332322221212111100000001121101000112110101010001010101011101011101010111110112121222354434",
"2222323232323233323333323332333333333343334343334343434343435330024443323222222121111010100001111010100121101010001010001010101010101010101110111011212121235544",
"2223232323232323332333333333332333333333333334343434333434333411013333222222121212111100010001110100010111010101010101000101010101011101010111111111111212123554",
"2232323232323232333332333233333333333333333333434343434343223100102232322222212111111010100001101010101110101010101000100010101010101010101011111011111121211243",
"2222232323232323232333233333333333333333343434343434343333112102011222221222121211110100010001010101000101010100000100010101010011011101010101110111111222121224",
"2222322232323232323232323332323332333432223322334333322133203101101121212221212111111010000011101000101110101010101010101010101010101110111110111010111121111123",
"2223232223232323232323232333233333333422122222122223321323111200110111121222121111010000000001010100010110010001000001010101010101010101010111010111111112111213",
"2222223232323222322332333232335233333221112232212111211222210120001010112121212111200000100010100000101010101010101000101010101010101010101011111111101111211122",
"2222232323222323232323232323334223222211111212211111112213210121000101110112121101000100010101010001010001000101000100010101010001011101010101011111111111111212",
"2222322232323232323232323233325222212121111122311011113123211122100000101111111121100010000010001000101010100010100010001010101010001010101010111011111111111122",
"2222232223232323232323232333334312121111011112221111021113221112200000010101121121010000000001000101010101010100010000010101010001010101010101010111011111111112",
"2222223232323232323232323232334320211010111011212110211122222122210000101010111110001000001000101010100010100010101000001010101000101010101010111011111011111111",
"2222222223222323222323232333132311121111010111222211110112221112220000010001010211000100000000010100010100010001010101000101010001010101010101011111011111111212",
"2222323232323232323232323334213321111010101010212121101122222112212000000000101110101000100010101010101010101010101000100010101010101010101010111011101111111111",
"2222222322232322232323233334212311011101010101121221111112121101122100000101011101010000010001000001010101000001010101010101010001010101010101010101111111111111",
"2222222222322232323232322332202221101010101010112121212111112110222100000000101000000010001010001000100000100010101010101010101000001010101010101010101011111111",
"2222232223232323232324343322111221010101010111011212121112111111121200000001011000000001010001001101000100010101010001010101010001000101010101010101010111111112",
"2222223232323222323243332231110131101010101010111111211121111010111110001010011000001010100000101000100010001010001000101010101000101010101010101010101011111111",
"2222122223222323232433232221110121010101010101111111121212121111011210000001010101000100010101000000010101010001000100010101000100010101010101010101011101111111",
"2222223222322232323222222121101021101000101010101111111121122121101110101110101111100010100010001010101010101010100000101010000010101010101010101010101110111111",
"2222232323222322232222121121010111010101010101110111111211121222122201011211110000010101010001010001000100000000000100010101010001010101010100011101010111110112",
"2222322232323232332111212121101021100010101010101011111111212121223221212321101010001010001000001000100010100010100010101010001000101010101110101010111011111111",
"2222232223222223331112111111110011010101011101010101111211111211232223222311110001010001010001000100010101010000010001010101010101000101110101010101011111111112",
"2222223222323233421111211120101011101010001010101011111111111111222122223110111000101000101000101010100010101010001011101010101000101010101010001010101011111111",
"2222232323222324320111111110010001110101010101000101111111110111121111111101011001000101010101010101010101010001000101000101000000010111010101010001110111111111",
"2222222222323242101011111010001011101010001000101010111111111111111010101000111000101010000010101010101010101000101010101010100010101010101010101010101110111121",
"2222232322222331010111110000000001110100010101010111111111110111010101000100010100010001010001000001000101000100010101010101010001010001110101010101010111111111",
"2222322232222230101011101010101011211010100010101010101111101111111110101010001000101010001010101000100000100010101010101010001000101010101010101010101011111111",
"2222232222222421010101110101000111110101010001010101111111011101110101010101011001010101000001000100010100010000011101010101010101010101110100010101011111111111",
"2222223222323320101010101001100011110010001000101010101111111110111010101010001000100000100010101010101010000000001010101010101010101010101010001010101011111111",
} ;
