/* XPM */
static char * xpm = {
"160 120 16 1", "0 c #000000", "1 c #111111", "2 c #222222", "3 c #333333", "4 c #444444", "5 c #555555", "6 c #666666", "7 c #777777", "8 c #888888", "9 c #999999", "A c #aaaaaa", "B c #bbbbbb", "C c #cccccc", "D c #dddddd", "E c #eeeeee", "F c #ffffff",
"2333333334343434343434443444444445444444444545455544454555555555555555555555555555555656565666565656666666666766676777787778787878888888888988898989898888888878",
"3333433333434343434343434343444444445444545454545454545455555455555555555555655565656565656565656566656666666676667777778787878888888898888898989898889888988887",
"2333333433343434343434343444344444444544454545454545454445455555555555555555555555555556565655566666666666666667676777777878787888888889888889898989898988898888",
"3333333333334343434344434444434443444444445454545454545554545455545554555555555555556565656565666566666566666676767777878787888888888898989898989899989898988887",
"2333333334343334343434343444444434454444454445454545454545454555555555555555555555555656565556566666666666666667677777787878787888888989898989999999898989898878",
"3233333333334333434343444343444344444444445454545554545555555455555555555555556555555555656565656666656666666676767787878788888888989898989998999998999898988888",
"2323333333333434343434343444344444444444454545454545454545455545555555555555555655565656565656666656666666666667677778788878888888898989999999999999999999888988",
"333333334343334343434344434343444444444454445444545454555555555455555555555553455455656565666566666566666666767676778787888788889898989999A9A9A999A9A99999989898",
"2333333333343334343334343434343444454545454445454545455545554555554555555555542343345656565666566666666666666767777878887888898889899999999A9AA98A9A9A9A99998989",
"3232333343334333434343434443434444444454445454545454545555555565555555545444544232434665666666666566666666767676777787888788889898989999A9AAA9A999AAA9A9A9999898",
"2333333334333434343434443444344444444445444545454545455555455555555644443333443334344786566766666666666766676777777878788888888999999A9AAAAAAA9A9A9AAAAA9A999989",
"3233333333333343434343444343444444444444544454545455555455555555555444323233343343446586656866656666666676767677778788888888989999A9A9AAAABAB9AAAAA9AABAA9A99998",
"23333333333434343434443444344444444445444545454545454555455555555543332433468A65567ABAA77669866667666766676767777778788889888999999AAAABABBBABAADBABAAABAAAA9A99",
"3233333333434343434344434444434444444444445454545555545555555554444332325457887777ACEC9A7866656666766766767677777788889888989999A9AAAABABABABBCFFFDBBAABBAAAA9A9",
"2333333333344334344434444434444444454445454545455545555555555543243322232339798734AA8A99976767687867676767677777787888898999999A9AAAABABBBBCBDFFFFFEBBBBBBABAA9A",
"3233333333434343434343434343444454444354545454545554555555555331322122323237446662477AABB66667AFACAB867677777777878888989899A9A9AABABBCBCBCBFFFFFFFFFCCBBBBABAAA",
"2333333333343434343444443444444444444445454545454555555555554222111112222222122333357BAAA9677BADBB9CA7676767777878888989999A9A9AABABBCCCBDCFFFFFFFFFFFECBBBCBBAA",
"32333333334333433343444344444444445444545454555455545555557441312111212221223122334456546588978AD9AAE87777767777878898989999AAAABABBCCCCCCFFFFFFFFFFFFFFDBBBBBBA",
"2333333434343434343434434444444544454545454545455545555555543222111211121222122223333334544657799AAADC8777777878788989999A9A9AABBBBCCCCDCFFFFFFFFFFFFFFFFECCBCBB",
"333333333343434343444343444444444444445454545554555465545442212221211111211132224444545565A4445666CCBCA77777778788889999A9AAAABBBBCCCCDDFFFFFFFFFFFFFFFFFFFCCBBB",
"23333334343434343434443444444444444444454545454555555555543322232211011111122335699ABCDFDDA86557567A9DCB877878888989999A9AABABBBBCCDCDDFFFFFFFFFFFFFFFFFFFFFCCBC",
"33333333334333434343434444444444444454545454545554555555533221211111112111224599DFFFFFFFFFFFEA86556568DC97978788889999A9AAAABBBCDCCCDDFFFFFFFFFFFFFFFFFFFFFFFDCB",
"23333334333334343434344444444445444545454545554555555555542212121112111222367ABFFFFFFFFFFFFFFFFC966555599899888888999AAAABABBCCCDDDEEFFFFFFFFFFFFFFFFFFFFFFFFFEC",
"33333343433343434343334444444444444444545454555455555555543121211111212244579CFFFFFFFFFFFFFFFFFFF9756456979888889899A9AAAABBCCDCDDEEFFFFFFFFFFFFFFFFFFFFFFFFFFFE",
"2333333334333434343434444444444445454445454545554555555555321112121213345568ADFFFFFFFFFFFFFFFFFFFFD9655657888888899AAAABABBCCDCDDEFFFFFFFFFFFFFFFFFFFFFFFFFFFFFF",
"3333334333434343434343444344444444445454545454545455555555433111212233556688ACEFFFFFFFFFFFFFFFFFFFFD96666578989899A9AABABBCCDCDDEFFFFFFFFFFFFFFFFFFFFFFFFFFFFFFF",
"23333334333434343434444444444444444545455545554555455555554322122224455668899BCEFFFFFFFFFFFFFFFFFFFFC97767687999999AABBBBCCDDDDEFFFFFFFFFFFFFFFFFFFFFFFFFFFFFFFF",
"32333333434343434343444344444444445444545454555454555455544321322466777776889ABCEFFFFFFFFFFFFFFFFFFFFFA98787A9B999AABABBCCDCDEEFFFFFFFFFFFFFFFFFFFFFFFFFFFFFFFFF",
"2323333334343434333434444444444445454545455555554555555544232232589988777778899BCEEFFFFFFFFFFFFFFFFFFFFDCCDABDDDAAAAABBCCDCEEEFFFFFFFFFFFFFFFFFFFFFFFFFFFFFFFFFF",
"32333343334343434344434443444444544454545454545454555555543222259AA987767787889ACCFFFFFFFFFFFFFFFFFFFFFFFFFEDEFEBAAABBCCDCEEEFFFFFFFFFFFFFFFFFFFFFFFFFFFFFFFFFFF",
"2333333433333434344444444444444444444545454545455555555544222228ABA977676778899ABDEFFFFFFFFFFFFFFFFFFFFFFFFFEFEFCBABBCCDCDEEFFFFFFFFFFFFFFFFFFFFFFFFFFFFFFFFFFFF",
"3233333343334343434444434444444454444454545454545455555553212268AA98766777889999ACFFFFFFFFFFFFFFFFFFFFFFFFDBEFFFEBBBCCDCDEFFFFFFFFFFFFFFFFFFFFFFFFFFFFFFFFFFFFFF",
"23333333343434333444344434444544454545454545455545555555432222799A8867778989A99AABDFFFFFFFFFFFFFFFFFFFFFFDAADEEFFCBCCDCDEEFFFFFFFFFFFFFFFFFFFFFFFFFFFFFFFFFFFFFF",
"3233333333434333434443444444444454445444545454555555545453212388A99887889999BA99A9BDFFFFFFFFFFFFFFFFFFFFFCA8CFFFFDCCDCDEFFFFFFFFFFFFFFFFFFFFFFFFFFFFFFFFFFFFFFFF",
"23233334333433343444444444444444444545454545454545554544442215799988777889999A87889BCFFFFFFFFFFFFFFFFFFFFF999EFFFECCCEEEFFFFFFFFFFFFFFFFFFFFFFFFFFFFFFFFFFFFFFFE",
"323333334343434343434444444444444444545454545554555555554322368899877666778887767788ABEFFFFFFFFFFFFFFFFFFFAA9BEFFFDCDDFFFFFFFFFFFFFFFFFFFFFFFFFFFFFFFFFFFFFFFFFD",
"2333333334343434444434444444444545454545454545555545555554224778998766555667676667776778899ACFFFFFFFFFFFFFAA9ACFFFDDDFFFFFFFFFFFFFFFFFFFFFFFFFFFFFFFFFFFFFFFFFED",
"3233333333433343434443444444444454545455545454555555555555226788988655545555666566655454445578CFFFFFFFFFFFB9A8BDFFEDFFFFFFFFFFFFFFFFFFFFFFFFFFFFFFFFFFFFFFFFFEEC",
"23333334343334344434444444444445454545455555455545555555553367799865444445454556565545454556689BFFFFFFFFFFB989ADFFEFFFFFFFFFFFFFFFFFFFFFFFFFFFFFFFFFFFFFFFFFFEDC",
"32333333434343434443444444445454445454545454555555555564553367898543323344445555666666767677789AFFFFFFFFFFB99ABCFFFFFFFFFFFFFFFFFFFFFFFFFFFFFFFFFFFFFFFFFFFFEDDB",
"23333334343434343444444444444445444545554545554555555555554357774312122334444556677777776767789BDFFFFFFFFFCA99AEFFFFFFFFFFFFFFFFFFFFFFFFFFFFFFFFFFFFFFFFFFFFDDCC",
"32333343433344434344444444445444545454555555555555555555655256632111223233434455668777767676789BEFFFFFFFFFCAA9CEFFFFFFFFFFFFFFFFFFFFFFFFFFFFFFFFFFFFFFFFFFFEDCCB",
"2333333433343434443444444445444545454545554545554555555555434532111223333333368A8777666644468CABDFFFFFFFFFCBAACFFFFFFFFFFFFFFFFFFFFFFFFFFFFFFFFFFFFFFFFFFFEDCCBB",
"33333343334344434444444444444454545454545455545555555555555334322333333233335BFFFA76655343446BFFBFFFFFFFFFDCBADFFFFFFFFFFFFFFFFFFFFFFFFFFFFFFFFFFFFFFFFFFEECCCBA",
"23333334343434343444454444454445454545454545455555565556465424333434332323249FFFFF9644343323366999FFFFFFFFFEBBDFFFFFFFFFFFFFFFFFFFFFFFFFFFFFFFFFFFFFFFFFEEDDBBAB",
"3333334343434344444444444444545454545554545455555455555455553443333232222237CFFFFFF85433433247CEFDFFFFFFFFFFEFFFFFFFFFFFFFFFFFFFFFFFFFFFFFFFFFFFFFFFFFFEEDCCCABA",
"3333343334343434444444444444454445454545454555555555554555553544332212111239CFFFFFFFB53334468BFFFFFFFFFFFFFFFFFFFFFFFFFFFFFFFFFFFFFFFFFFFFFFFFFFFFFFFFEDDDBCBBAA",
"3333434343434343434444444444445454545454545555555565545565554443322111212158EFFFFFFFFF866689CFFFFFFFFFFFFFFFFFFFFFFFFFFFFFFFFFFFFFFFFFFFFFFFFFFFFFFFEEECCCCBBAA9",
"2333333434343434344444444444444545454545554545555555455556555643221101121259EFFFFFFFFFFFDCCEFFFFFFFFFFFFFFFFFFFFFFFFFFFFFFFFFFFFFFFFFFFFFFFFFFFFFFFFEDDDCCBBAA99",
"3233333343444344434344445454445454545454555454555555556555655653212111222279EFFFFFFFFFFFFFFFFFFFFFFFFFFFFFFFFFFFFFFFFFFFFFFFFFFFFFFFFFFFFFFFFFFFFFFDEDCCCBBAA999",
"233333343434343434444444444445454445455545554555554555555555574312221212247AEFFFFFFFFFFFFFFFFFFFFFFFFFFFFFFFFFFFFFFFFFFFFFFFFFFFFFFFFFFFFFFFFFFFFEDDCCBBBBAA9989",
"33333343434343434344444444444454545454555455545555555555655556536553333346A9BDFFFFFFFFFFFFFFFFFFFFFFFFFFFFFFFFFFFFFFFFFFFFFFFFFFFFFFFFFFFFFFFFFFEDDCCCCBBAA99998",
"333333343434343444344444444545454545454545455555555556555555577887554446788669BFFFFFFFFFFFFFFFFFFFFFFFFFFFFFFFFFFFFFFFFFFFFFFFFFFFFFFFFFFFFFFFEEDDCCBBBBAA999988",
"3332334343434344444344444444545454545454555455555455555555556798877676789754569BDBDFFFFFFFFFFFFFFFFFFFFFFFFFFFFFFFFFFFFFFFFFFFFFFFFFFFFFFFFFFEEDDCCBCBBAA9999898",
"2323343334343434344434444444444544454545455545555555555555565899888889888644567954357FFFDCCEFFFFFFFFFFFFFFFFFFFFFFFFFFFFFFFFFFFFFFFFFFFFFFFFEEDDCCBCBBAAAA998888",
"33333343434343434444444444444454444454545455545455555555655568999999988775434567422258FFFA9ADFFFFFFFFFFFFFFFFFFFFFFFFFFFFFFFFFFFFFFFFFFFFFFEEDDCCBCBBAB9A9989887",
"332323343434343444344444444444454545454545455545455555555555699A9A99987743112557553568EFFE988DFFFFFFFFFFFFFFFFFFFFFFFFFFFFFFFFFFFFFFFFFFFFEDDDCCBBBBAA9A99998888",
"32223343434343434444444454445454445454545555545555555555555578999999975553213455545579FFFFB789CFFFFFFFFFFFFFFFFFFFFFFFFFFFFFFFFFFFFFFFFEEDEDDCCBCBBAAAA998988887",
"233333343434443434444444444444454445454545554555555555555555688999887644443334444567AFFFFFB878AEFFFFFFFFFFFFFFFFFFFFFFFFFFFFFFFFFFFFFFEEDDDDCCBBBBAA9A9999898878",
"3333334343434443444444444444545454445454545454555555555565557788988764435432334455AFFFFFFFE9878BFFFFFFFFFFFFFFFFFFFFFFFFFFFFFFFFFFFFFEEDDCCCCBBBBAAAA99898888777",
"2333333434343444444444454445444545454545554555555555555555566778776654444654343435CFFFFFFFFD8889CFFFFFFFFFFFFFFFFFFFFFFFFFFFFFFFFFFFDEDDCCBCBBABAA9A999988887877",
"3333334333434343444444444444545444545454545555555555555555656676766554445675445558EFFFFFFFFFB899BEFFFFFFFFFFFFFFFFFFFFFFFFFFFFFFFEEDDCDCCBBABABAA9A9A89898878777",
"3333333434343434344445444445444545454545455555455555555555555666665644355788668B98778CFFFFFFF99BBEFFFFFFFFFFFFFFFFFFFFFFFFFFFFFFEEDDCCCCBBBBABAA9A99898988887777",
"3333334343434344444444544454544454545454545455555555555555555665666544447787534344545578EFFFFD9BEEFFFFFFFFFFFFFFFFFFFFFFFFFFFFFDDDDCCCCBBABAAAA99998989888887777",
"333333333434443444444444454445444545454555455555555555555556566666554445796433343434455669FFFFCBFFFFFFFFFFFFFFFFFFFFFFFFFFFFEEDDCDCCBBBBBAAAAA9A9989888888777777",
"3333334343434343444444444454445454545444545554555555555555555566666443568742333332323344568CCBDBFFFFFFFFFFFFFFFFFFFFFFFFFFEEEDDCCBCBBBBAAAA9A9999898988787877776",
"333333343434343444444444444545454545454545455545555555555555565667554447843322121212358DD856578AEFFFFFFFFFFFFFFFFFFFFFFFDEDDCCCCBBBBABAAAA9A9A998989888877787767",
"333333434343434444444444444454445454545455545554555555555565566666645456633221222366ACFFFFFFD889EFFFFFFFFFFFFFFFFFFFFFFDDDDCCCCBBBBABAAAA9A999999898888787777676",
"3333343334343434344444444444454445444545555555555555555555555676675545554322233444789CCDFFFFFEAADFFFFFFFFFFFFFFFFFFFFECDCCBCBBBBABAAAA9A9A9999898888887877777767",
"3333434343434343444444444444445454545454545554555555555555556566766544543223544453445689BDFFFFFCDFFFFFFFFFFFFFFFFFFECCCCCBBBBBBAAAAAA9A9999998988888878777767676",
"33333334343434343444444444454445444335455545555555555555565555566755454423443333344556689DFFFFFFDFFFFFFFFFFFFFFFFFBCCCBBBBABABAAAA9A9A99998989888888787877776766",
"3333333343434344444444444444544454544454545454555555555555655555666564433454434444545569DFFFFFFFFFFFFFFFFFFFFFFFCABBBABBBABAAAA9A9A99999989888888887878776767666",
"333334343434343444443444444445444545454545454555555555555555555667665544354434343434457AEFFFFFFFFFFFFFFFFFFFFFFAAAABABAAAAAA9A9999999989888888887878787777676666",
"333333434343434343444444444444445444544554545455555555555555555566656554566554434333458AEFFFFFFFFFFFFFFFFFFFFB99AAAAAAAAA9A9A99999989898988888888787777776767666",
"3333333434343434443444444444444445454545454545554555555555555556566655455666553333369AACDFFFFFFFFFFFFFFFFFFFB9999A9A9A9A9A9A999999898988888888787777777767666666",
"33334343434343434443444444444444545454545454545554555555555565556665545565655444558BFFFFFFFFFFFFFFFFFFFFFFFFA899999999999999999898988888888888878777767676766665",
"3333333434343434343444444444444444454545454555455555555555555555565655565666566768ADFFFFFFFFFFFFFFFFFFFFFFFF9888898989999989998989888888788878787877776767676666",
"33333333434343434344444444444444544454545454555454545555555555556565555565666787879ADFFFFFFFFFFFFFFFFFFFFFFF9888988898989898989888888887878787877777777676666565",
"333334343434343434343444444445444544454545454545555555555555555655565556566678787778ADFFFFFFFFFFFFFFFFFFFFFF8878888888898989888888887878777877777777676766666656",
"3333334333434343434444444444444444444444545554545455545555555555656555656676766676669BDFFFFFFFFFFFFFFFFFFEFC8787888898888888888887878787878787777776767666656565",
"23333434343434343434444444444445444445454545454533345545555555555556555656676645454568ADEEFFFFFFFFFFFFEEDFFB8778788888888888888888787778787777776767676666665656",
"333343434343434343434444444444444454445443322122323345555555555555555555666665534444568BDCDEFEFEFFFEFDCBBFFA8777778788878887878787878787877777777676766666656565",
"233333343434443434444444444444444445454333333323211113454555555555565545565655443434578BBBCDCEDDDDCCBA9ADFFA7777776778787878787878787778777767776767666666565655",
"333333434343434343444443444454445444434333322232322121245555545555655554555544434589CDFFFDDCDBBBBBAA989BFFF87776667777877787778777778777777777767676666666656555",
"2333333334343434344444344444444444443333332223222212221224555556555565444545568BDFFFFFFFFFFFCA9A9988889DFFF97766787878777777787778777777777767676767676666565656",
"3333333333434343434443444444444443323233212232322111112232455555656474434579DFFFFFFFFFFFFFFFFEC8777788ACFFF87676667787777777777777777776767676767666666666656555",
"3333333434343434343434344444444423222222222222231211121222232235555457469DFFFFFFFFDDCDFFFFFFFFFFB87789BFFFF86767677777777777777777777767677767676666666656565655",
"3333333333434343434344444444443332211111212222211121112122223135534449CEFFFFFEECCAA999BCFFFFFFFFFFD999CFFFF77676767776767777777777777676767676767666666565655555",
"2333333433343434343334444434443322221111022222121212111111121223358BDEEEEEDCAA9988777889ACEFFFFFFFFFFFFFFFF86767666777777777777777677767676766666666665666565555",
"3333333343334333434344434443433221212121112111212121111111111137CEFFECBBBAA887766566667788ABEFFFFFFFFFFFFFF77676767676777777767676767676767666766666666565555555",
"232333333333343433343444344333332222122211111212111111011111127CCDCCAA887876565555578ABCBDDEFFFFFFFFFFFFFFFDA976676777676777677767666766676666666666565556455545",
"3333333333334333434343434342323222323221211011211111111011111267899776656654544455ADFFFFFFFFFFFFFFFFFFFFFFFFFFFA867676767777767676767676666666666566656565555554",
"233333333333333334344434442222222222221112110111011111111111123556554545444434358DFFFFFFFFFFFFFFFFFFFFFFFFFFFFFF998767676767676767676767676666666656565656554555",
"323333333333334333434343433222212122211122111011101111211110112243434343323346ACFEEEFFFFFFFFFFFFFFFFFFFFFFFFFFFFB88987767676766676666666666666666665656565555454",
"2323333333343334343434343322232222232212121111011111011201110112222222232237AEFECCBCCDEFFFFFFFFFFFFFFFFFFFFFFFFFFA7788876767676666666666666666665656565555554545",
"32333333333333334343434333322222222222222121211020111011101011101111212135ADFEDBA999AABBBBBBCDFFFDEDEDFFFFFFFFFFFD8777788776666666667666666665656665555555555454",
"2333333333333334343434343323221222121223221222110101011211010111010101138BCCCBA98778898989899AABBBABAAABCFFFFFFFFFB877788998676766666666666656565656565555554545",
"323333433343334343334343322233222121223232333221101011112110111010111269BAA9988676777787778788889888889ACEFFFFFFFFFA8798999AA87666766666666666656555555555545454",
"2323333333333434343434232222132312222322233323221101010112111101111369BB9988777767676767677777777777778BEFFFFFFFFFFFA9899989ABBA86666666666666565656555555554544",
"32323333333343433343333232222122333223323342323321101011111111101149CBB9877677766665656566666665666567BFFFFFFFFFFFFFF9A9A9999889BA866665656565656555555554545454",
"232323333333333333343422222222122333332223232334321111011211011116ABA9776667776656544545555666554557BFFFFFFFFFFFFFFFFE9A8878788889AA7756566656565555555545454444",
"32333332333333334333322222312221112243323332234332221011112111469AA8877666777665533233434466877567CFFFFFFFFFFFFFFFFFFFB8879877878898A865666565655555555455545444",
"23232333233333333333332223222221121224333323343323331111111249ACBA7666566666664422232334355679ABDFFFFFFFFFEEDEFFFFFFFFFA7778888878788A97665656565555455545454444",
"323232333333333333333221223231222121222342223333324321101125BAA99665656555544321212232334467ADFFFFFFFFFEDAAABEFFFFFFFFFE9887788788777898656555555555545444544443",
"2323332333333333343322112222222212111323353333233433221101267777654555554322222222222223479CDEFFFFFFEDCB9878BFFFFFFFFFFFC988887778788888765555555545454544443347",
"32323233333333333332311122312232211111223353422234433211102355655454544221233232323322436ADCCCDDDCCBB9987669FFFFFFFFFFFFFB87888897777788766555555554545454433465",
"23232333232333233323211222222222121111111234332224332311111334454443231111453323333323457ACCBBAAAA998876569FFFEDDEEFFFFFFFA8777788787878776555554555454444343434",
"323232323332333333322111212122212221111111223443323333211011333332211111135432223343334578AAA998988775669DFFFEEDCBCDFFFFFFFA978776667787767554545454445444444343",
"2323222323333333332322121222222212111211111112453223342101012312111101111444232224343445577878787766679EFFFFEEDCBBBCDFFFFFFF977766566778677545454545444444443433",
"3232323232333333323221212221312121212121111111244332333111102221111010112343323233434444556676766678BEFFFFEDDBBBA9AACEFFFFFFF87666657767757654545454444453444343",
"23232323332323331222221112222222122222211111111233333332111112110111011113333333234445555556666669CEFFFFDDBBAA998889ABDFFFFFFF8667656666666655454544454444343433",
"323232323232323212222221112121212121223121111011233342332010222110101010212233333344445555556568BDFDDCCBBAA998888889A9BDFFFFFFE866756565656556544454444444434333",
"22232323232323221212222312122211111112222211111112343333310112220111011112122333334545555555469BCDBAAA998888788888899A9BCFFFFFFD66666666656535654445444434343433",
"2232323232323231212121244221212111111122222221112123333331101132101110111111223344445555555458A9ABB8988787878888989899A9BCFFFFFFB6756676667643655444444343434333",
"222323232323232212221212233322121111122222232211111333243101012311110101121112233545454555457988799877787888888988888999ACDFFFFFF9666666566743575444444444343333",
"2222323232323222223222212233433332322122222222211011233331100123101110112121112245545454545788777687778788988787888888AACCEEFFFFFF976665556653566444444343433332",
"22222322232323232223232222222324322211121212221221011334220101131111110112221113454545454679876666677889897767677778899BCDEFFFFFFFF96756666763576444443434333323",
"323232323232323222333343333221222233312121222121211112333310102310111011223311245454445557A87665667788988654556666778899BBDEFFFFFFFF8765656564666444434343333222",
"2323232323222322232333343322121112223333221222222211122334110113211211012333213544344546798867666667887654444545566788899BBDEFFFFFFFF965565666566544343333332222",
"22323232323232222232322221212111111132213321212232212232234110134011101122433254434454678776666666777654444444445567888799AACEFFFFFFFF86666565656543433333322222",
} ;
