/* XPM */
static char * xpm = {
"160 120 16 1",
"0 c #000000",
"1 c #111111",
"2 c #222222",
"3 c #333333",
"4 c #444444",
"5 c #555555",
"6 c #666666",
"7 c #777777",
"8 c #888888",
"9 c #999999",
"A c #aaaaaa",
"B c #bbbbbb",
"C c #cccccc",
"D c #dddddd",
"E c #eeeeee",
"F c #ffffff",
"33343334344444444444444444444444454545454532122212122211222222222223233333333434343434454545668755565667BF988999888878787878787777677767666656565655554555454548",
"334343434343434444444444444454445454445454212221211221222122222222333232323333333343434444445577555455658CC88898878787878777777776767666666565656555555554545457",
"3334343434343444444445444445444445454545431222121221121212122222123323232333333333343434344445566655566557BA8888787877787777777767676666665656565555554545454446",
"3343434343434344444444444444444454545454422121112121212122222221222222323232323333333333434444556455556565A98788878777777777777776766676666565656555545554545444",
"33343434343434444444444444444445454545454212111211121212121222122222222222232323233333343444454555454545467A8878787877777777776767666656665656555555555555454445",
"3333334343434344434344644454444454545454422121111111112121222222222222222232323333323333334444445554445457788777877777777777767676666666656565555555555454544444",
"3334333434443444443334444545444545444545321211120111121113122222122222222322232323233333343444454544344547787777777777776777676766666656565655554555454545454445",
"3343334344444444433122434454545454545454212111211111211121212121222232222222223232323333434454554454434357B87777777777767776766676666665656555555555545554544454",
"3333343434443443331343122444454545444544211111110122121212121212122222222222222323233333344445454554343449BA7777777777676767676766666656555655555555454544454445",
"3343434344434333314454532233445454555453212111101121112111211121222222222222223232323333434455555565434458A98787767777767676766666666565656555555554545454544444",
"33343434344433322445455544322344455545431111110111211211121112133444232222222323222323333445555555564445479A8877776767676776676666666656565655555555454545454444",
"3333434343433223444444555555422244545452111110102111111121212224654343322222223232323333445565655565555456898777767676767676766666666565656555555555545454544444",
"3334343434332234454545455655554313344552110101111211111212122236555544332322232323232345565666566666555446788767676767676767666666665656555555555555454544444444",
"3333334332313344545455555555655553223442111110112111111122212265565543433232223233324456666666666666645455778776767676767666666665656565656555555454545454544444",
"3433333333133444454555565555554434432222111111111111121222121355465534443323232323244556565666565666645446687767676766676666666666565656555655555545454545454444",
"3343433321334454555455555554544343333331111111111111112122212464555444544332223233345565656565656666656446677676767676667666666665656565556555555454445444544444",
"3434333224444444454555554544343334333332110101111111021223222555454555555433232323455666565655455556666447676767676767676666666656565656565555555545454545454444",
"3343332244445454545454544443434332333342111011111111112122233554644435656443223233456565656565544454566466777676667666666666656665656565655555555455545444544444",
"3433213434444555454444343433343334344543111111110111111223343555543436565543232334465666665655454434355567676766676767676666665666565656555555554545454545454444",
"3332233344444454445443333333333343445553111111111111112233543454544465656663323244556565656665655443435576666676667666767666656665656565555555555454545454545444",
"2312333434444444443434333333333435555544121111110111111224553455555544666655432345565666565656565544335767666766676767666666666656565656555555555545454544454444",
"3132334343444343434344433333334454555553211111111011112234654354544443767665534455656665656565545554435676667676767666667666656665656565556555555454545444444444",
"1333343444343433333333333434344545455544111211110111120235553445443434666766565556565656565555454445446767676766666766666666666656665656555555554545454545444444",
"3333334343333333333333433344445554555554212121111111112245654344545443666666656566656565656554543344556666766666667666666666666565656565656565555454545454444444",
"3323333434333333333333333445455545555545221111111111121346564435555633566766565655566656565555464446577767676766666666666666666666565656555555555555454545454444",
"3333333333333333333333435554555554555555322111101111112355655444556554666665656555656565655555654465867676667666767666666666666665666565556555555554545444545444",
"2333333333333434343334454545555545555555321211010111122446565444455556666656665656565656555556554556656766676666676667666666666656565655565555554555454545454444",
"3232333333434333434344555554555454555455322111101111223455655443445555666666656565656565655565545556557677777676767666766666666665656565556555555455545444545454",
"23232323333433343445454545554444233345553212110111122335565665443445566656565656565656565656565545565567789A7767676666676667666656565656555555554545454545454544",
"3232323333434333445454545454433342324455422111111111235565656564444455666665656565655565655565645555857677878676767676666666666665656565556455555554545454545454",
"2323332333343335454555454544333433334555321211011112255666666656444556566656565666555656565656565555756677766777676767666666666656565655565555555555554545454545",
"3233333333324454545454555443344443445555312121101122456676666566666555666566666665555555555565666555567676756777767666766676666665656565656555555554545454545454",
"2323333433344545454545454534444444455555221111111124466767666656666645565656666666554555455556665545576778877767676767666766666656665656565555555555455545454545",
"3333334233445454545454555444445454555555311011112134667776766666667555556666666665655554555555656555557898877776767676766666666666656565556578987655555454545443",
"343434233445444545455545554544454555555532111212234667677766676667676655566666666655454555555666554556798988787767676767666666666666565668AABCBB9866564545343334",
"4344444444545454545454555454545454555554322112224466767776766666666665646566656665645554555555655454567898878876767676767666666666666566AACCC9755566645433445565",
"343444454445443323344545555555554555555322121324456777776767676666665666565656565655555545555655444555688888787777676767676766666666567BBBAB98677866565555566656",
"43444443443332222111112344545454545554422122134466667776767666666665656565656566555455555555556444555567878777877676767676766666666566B9886565767677765333456666",
"34344444322323233333321111244555455422222222145666676777676666565656565656555655554555554555465545455558887877FFB87777676767666756666976753334465664333455445666",
"434344422232323232323232101133324442212222222255766677767676656565556555655555655554555455555564545444678887769EFFA777767676766666669755322243345432234453444576",
"3444432222222322221212122211122223222212222222466766676767666666555556555555555555454545455545554434345889886788AFFE87776767676667679724322533222212232334333457",
"434432322232322221211121222111222121222222222245667677767666656565545555545554555554545454545555544444679887768788EFFA877676766666677345325332212122223243334444",
"3434222322222222221212111112111211122212222222356667676766666656665545454545454555454545454445554545556889886777666AEFF97767676666764343233222121212121223232323",
"433222222222222222222121112120112122212222222234667777766665656566645454545454555554545454555454545455679887776555679BFFF876766666754242222121212121212122322222",
"3423222222222222222212121112110111121212222222245777776766565656665545444445454555455555455545454545565899887755455789999A77666667443532221212121212121222122212",
"4322223222212222222221211111111011112122222222335677767665656565656554444444545555545454545454545555655899887764546777877676766677434221212122212121212121223222",
"3222222222121222222222121211111111111222222222234667776666665656555545444444454555454545454533344556555999887885456878787667676665343312221222121212122222221212",
"2122223222222122222221211121111111102121212122224566766666656565555554444344445454545454555442334455446899878795578777877667766653323443212121212121212222222121",
"122223232222122222222212111211120211121212122223355667666656555655555544344445454545454545454433554444699988777668787777666FF96743224433321212121222122223222212",
"2122223222212222222221211111211111101121212122223455666665555565555454444344445454545454544443446443437888777677778776766668797542324243322121212222223232322221",
"1212232222222222222212121112121211110112121112223456666656565655555545444444344445454444444544346633456777776766677767676667666633233433331222122223233333222222",
"1122222222212221222121212111212121101111211121223355656665655555555454444443434444544454544454457565557777767666767666666665656432234232322122223232323343322221",
"1212232222222212222212121212111211110111121112222345565656555656555554444434344444454445444545686656666777676666676666666656566423243422331222233323333334332322",
"1122223222212121212121212121111121111111211111222344656565556565655554434334434343444454544445787665657777767666666676656665667432234323322222333233333343434332",
"1212232222221211122212121211111111111111111112122345555656555556555555444434343434444445454436787666667877776666666666566656666323243433332223333333232223343322",
"1121223222222221222221212121111121111011111111212344555555555565556554545443433343444444544446897665657787767665656665656665667332334443333233433333333222344332",
"1212132222221222222212221212111111111211111111122244455555555545555555454433343434344444454437897766567877776766566666565656666322233433343334343333232322243333",
"1121223222212222212121212121211121111111111111112243545455555454545454544343333333334444545447998675558787777665656665656565666332333233334333434332322332223333",
"12122322122222221212121212121211111101111111111222244555455545454545454434332323333334344444378A7865467877777766566656565656665423343333343334343333232222123334",
"1111212221112121212121212121212111111011111111112223445454545454544454544322433232333343444347998774357787777665656665656565666333333333434333434333323321223344",
"11121222111111121212121222122212111111011111111112143445454545454544444432122665232333343444389A8875367877777766566666665656666544343333333434343433232222222334",
"11211121221011102121212221212111211110111111101121224344545554544444445431212465633223434443489A8777667777767776656666656566667654433343434333434443322232223234",
"12111212121211111111112212121212111111011212111112223444454444444444444322121422256323344444389A8877666777777777566666665656666644333433343334343434332222232214",
"1120212111112110111121212221212121211110112121112121334444444444434343412221234121552344444448AA8787757676767776666676666566667543434333434333434443433222332132",
"01111211111112121111121212121212121211011111111111122334344444443434332213121342122634344444399B8877765777777777666666665656666534343433343334343444333323332352",
"1111112111101121211121212121212121212111111111111122223343434343333231212221223321244444444348AA9787A56677878887766666666566665443334333433333434443433232333272",
"01111211111111121212121112121212111111110101110111121234343334343212121212221323121444444444399A889FF94678888988766666665656664434343333333333344444333323332312",
"11111121112111112121211121211121211111111111111111211133433333332111232122312321212244444443489A99FEEE9478989998766665656566655443433333333333434343323233323222",
"11111212221211121212121112121112111101110111110111111123343323231101231212321322121233444444499BAFFFDDC659998998776666555656456544333333333334343333332223332222",
"1111112222212221212221211121112111111011111011101111212333323222111123213221232121223254444449ABDCFFCAD858A99998866665556566545444333333323333433333333332333232",
"11110112222222222222121212111111111101011111110111121113232323120111132223321322121232243444499C8DFEDEE959999988765655555656444634333323233333332323343323233322",
"1011102122212222222221212111111111111011101110101110111132322141112122212333222111223224444449B89A878CEA78989887756555555565544453333232323333323222333332223222",
"1101111222222222222212121212111111111101111111011101010112221251121212221234131111123214444449877B7646A745577887565555555656643334332323332333232222233322232322",
"1011101121212222222121212121111111111110111111321110101121212531112211312222222111213323444347766A75443332334566655554555565643233333232323333323222333232333232",
"1101110122222222221212121212111111111100010112441101010123334301122311221322121111123313444458666875442333332334455555555656433324332322332333332323232223233333",
"1111111121222222222221211121112111111010101011321010101021211111222121112133211111213322644477756695433333323232334454556464333343533232223333334222323232333332",
"1111111112122222122212111212121211111101011111010101010112111112111211112222121112123313633567556686432333232323232444455433333433353333232333369522232323232323",
"21111110122122212121212121212121211011101010101010101010112121111111111121112111111132126537665564453232323232323222335456323343334533322333436ACE63323232323232",
"1111120112122212122212121212111111110201010101010001010102121112122212111111121111122114464966565444332323232322232223355654344323453322233445577884232323232333",
"2111111111212221212221212121212121111010101110101000101021211122223331111111111111212123458776555552323232223222322222235664545232323122234354557785323234422333",
"111112111112222212221212121212121111111101010101010100011211121222232211011112111112112334666745543333232323222222222222356644542332121223345667999A332356532333",
"1111111011212222222221212121211121112120001110101010101011101121222132101011111111111122335666544542222232323222222222222256655443412232224566669889533455533233",
"1111111111121222122222121212121212111211010101010101010012010112121211110111111111121122223544466433232322232322222222222225655654322434444577677878853644242223",
"11111121111122212122222121212111211111211010101010101010111010111121111110111111112121213224545642323222323232222222222122226455654244556766777778768A5444323232",
"0111111111021212221212121112111211111211110101010111010101011101111111110111111111121112122444563323222222222222221222222222233456435436776767667866684545522323",
"1121112110112222212221211121212121112121111010101010101010101110111110101011111111212121212335633232323232222222222221212222233453334357776656655454538564633232",
"1111111211111222121212121212121211111211120101010101010101010111010101010111111111121112122335432323222222222222221222122222223344243336676545444665459453542323",
"1111211111112222212122212111211121112121111010101011101000101111101111101010111111212111112234323232322222222122212221212222223344334444445354544453478363454232",
"1111111111111222121222121112121212121212121101010101111101011111111101010101111211121111121233222323222322222222222222222222222466344435555444344664484364255323",
"1111211121111122212121211121212121112121211110101011111010101111111110101011111111211111212232222232322222222222222122212222222465445544435444556574755374446632",
"0111111211110212221212121112121212121212121211010101110101011111011101010111111111111111121323222222222222222222221222222222222466356646666655565664666445348B33",
"1111112121111122212221212121211121112121212110101011111000111110111010101010111111211111112221212222222221222122212222222222222465446655777564656564647844448842",
"0101111211111112221212121212121212121212121111010101110101011111111101010101111111110111122223232222222212221222221222222222232566356646676654566664346953545433",
"1111112111111011222222212111212121212121211111001011101010101110101010101011111121101122223222323231222122222121212222212222223565446555666654566663347773225344",
"0111111111111111221222121212111212121212121111010101010101011111010101010101111111111222121222232211111212221222221212222222233556356646566645465543358684134334",
"101011111111101121222121211121212121212121212110101010101011111010101010101111111111111110112132212111112122212121212222222232223323555566765534433356A877224244",
"1111011211121111121212121211121212121212121211010101010111011101011101010101111111111111011112221111111112121212221222222222222323233434445533233433577A67333334",
"1010111121111111222222212111211121222121212121101010101110111110111010101011111111112111112122211111211121212121222122222333222232333332334433334444668A74524244",
"1101111211121111122222121212121212121212121211110101010101111111010101010101111111011222122222111112121212111212221222224435344444333433344533445644576965353334",
"1010111121111111112221212221212121212121212121101000101111111110101010101011111011112222222221111121212121211121212122225345425553444564557774546643688796653233",
"110111011111111112222212121212121212121212121111000101011111110101010101010111011113221212221111121222121222111122122223434634454434565555677554563448768BFA2323",
"111011112111111111222121212121222122212121211121101010111010101010101010101111101112211111111111212121222122212121222223435543544344656455667544553344577EE63232",
"111111111111111111122212111212121212121211111111111112111101110101010101011111010112111101111112221211121222121212122224334544444434565445576645463323455C753323",
"2110111011111111112222212111212121212121212111112111212110111110101010101122211011211110111111212221211121212121212122333345535443335564456666555532333487544333",
"1111111111111211111222121112121212121212121211121122222211010101010101011222232212221211111112122212221212221211121222332335444433345554455656554534445644342334",
"1111111011111111101121212111212121212121112111212122212220101110101010102122222222212111111121222221212121212121212222322233433232224454334343456565444334432334",
"1111111111111111111112121212121212221212121212122222221211121101010101111112222222221211111212122212221212221211121223233335443322233333233434344544233335332223",
"1111111011111111111121212121212121212121112121223222211121222010101010111111212122212121211121222122212121212111212223324334543232234455334344434453223334432233",
"1111111111111111121112121212222212221212121212132322121113121101010101021201121212121212121212121212211212121211121234432424353322223333333455343433222214332213",
"1111111011111111211112212121222122222121112121223222212221211020101022222221111121212121212121212122222121212121212234433232443332334455434455534332212123322233",
"1111111101110111111112122212221212222211121212232223222211111112110212222222121112121212111212122212221212121212121334343223343433344545443545443323121123222324",
"1121111011111111211111222221222121212121212122322222212111111022212122212122212111212121211121222122212122212121212343324333343332344444334455543222212222333223",
"1111121111011112111111122222222212121212121213232222121212111112221222111212121111121212121212221212221212121212122333233424233423344434333555442322122322233323",
"1111112111111111211111112222222121212121212122322222212111111122221121111111212110112221211121212121212122212121212233423422434332434443323455523231212221223232",
"1111121111011111111111122222221222221212121222222222121211110122221211121111121211011212221112121212221222121212122333234432334422344544233445332322122122222223",
"1121111111101111111111112122212121212121212222322221212121101122221121212111111221111121212121212121212121211121212232434332234322434343323334324321212121212122",
"1111121211011111111112111212221212221222122222222212121111110222220112121112111112111112121212121212221212221212122234333334222212232322222222343312132123222212",
"1111112111111111111121111121222221212121223222212221211121101122211022212111211111211121222121212122212121212111222233333332322121223222213222334211223132322232",
"1111121111111111111212111212221222121222132222222212121211110222220112221212121112121112221212121212221222121112122223332222222212232323232222243211232123222323",
"1111111111101111111111111122222121212221222221212121212121101122211011212211211111222111212121212121212121211111222122322222323332445444434222333111222132323232",
} ;
