/* XPM */
static char * xpm = {
"160 120 16 1", "0 c #000000", "1 c #111111", "2 c #222222", "3 c #333333", "4 c #444444", "5 c #555555", "6 c #666666", "7 c #777777", "8 c #888888", "9 c #999999", "A c #aaaaaa"
, "B c #bbbbbb", "C c #cccccc", "D c #dddddd", "E c #eeeeee", "F c #ffffff",
"3444444545555555565556565666666667676767777877787878787878787878787878787878787878787777777777676767676766666766666656666666565555555555455545454544444444343434",
"4444445454555455555565656566656666767677767777777787878787878787878787888787878777778777767776767676766676666666666666666665655555555554545454545454444443434343",
"3444444545454545554555565556566666666767676767777777777778787778787878777877787777777777676767676766666666666666666665666666565555555545454545544544344444343433",
"4444445454545455545555555565656565666676667676777777777777777787878787778777777777767776767676767676666676666566666665666565655555555555545454544444433343434333",
"3434444444454545455555555556555656666666676766677777677777777877777777777777777777677767676767676666666666666666666656565656555655554555454545454544343334343433",
"4444444444545466545555555555555565656566667666767676777777777787777777877777767776767676766676666666666666666666656665656565655555555455545444544444443343434343",
"3434454845454557975666555545555655565656666666666777677767777777777777777777777777676767666766676666665666566666565666566656555555554555454545454544444434333434",
"444456696443334479AAA8765555555555555555546666767676767677777677777777767776767676767676766666666666656665656565666665656566555555545555545454544454544443434343",
"477544332212222334467A9A8555554555554445454556666667676767776777777777677777676767676767666666665666666666566666565656555656555555554555454545444545444444343434",
"566444422121222122223357CC95545544544444545455666676767676767776767676777776767676767676667666666666656665666665656566666565555555555454545454545454444443434343",
"3334323443321212121212235AFE754445444445454545566766676767676766776767676767676767676766666666666666666656565656565656565656555555555555454545444545444444343433",
"112121323221212111212222346DE86444444454445454666666767676767676767676767676767676667676766666666566656565666565656565656565555555555554555454545454444444434343",
"11111112121112111112121223249FA544444545454545665667676667676767677767676767676766666766676666566666566656665656665656665656565555555555454545454545444444343434",
"111111111111212111211122223349FA64444454445455656666667676767676767676767676767676667666666666666665666665656566656666656565655555555554555454545454544444434343",
"1112111111111212121212122223347FA6454545454545565666666667676667676767676767676767676666666656665656566656565666565656566656555555555555555555454545444444344434",
"11111121111121211121112122223357F8544454445454656666766666767676767676767676767676766666666665666665666566656565656565656655655565555555555455545454545444434343",
"01111111111212121212121222222336AF644544454545565666666667676767676767676767676767676666666666666656665656565656565666565656555555555545554555454555454544343434",
"111111111121212122222122222222346B945444545455656666666676767676767676767666767676766676666666666566656565656665656665656565655555555555555555545554544454444344",
"0111121112121212122223222212122458854444454546566666666667666767676767676767676667676666666666665666565656565666565666566656555555555555555555455545454545444434",
"1111111111212221222233433221223357755444545455666666666676667676767676767676766676766666666666656565656565666565666665666565656555555555555555555554555454444444",
"1111111112122212122334443322122348854544454546566666666767666766676767676667676766666666666666665666565656565656566666665656555555555555555555455555554545444434",
"1011111121211121233344444332222356865454544455666666667676667676767676767676767676767676666666666566656665666665666565656565556555555555555565555555555454544444",
"0111111111111212233434454533221245665444454556666666666766676767676767676667676767666666666666665656565656565656565656666656555655555555565556555555554545444444",
"1111111111111122334344545443322145766444544555666666666666767676767676766676667676666666666666656665656565656565656565656565656555555555655565655565555554545444",
"1111011112111222343545554544332234565655454546666666676766676767676667676767666767676766665666566666565656566656665666665666565556555556565656565656554545454444",
"1110112111212232334455545554432234545554545456667666766666667666766676777676767676667676666666666565656566656565666666656665655565555555656565656565555554544444",
"0111111211121323354545455544342224444444454546666766676667676667666767677878798767666666666656566656565656565666666666666656565556565656565656665656554555454444",
"1011112111222234445455545454533233544444545456667676767676766676767677BDFFFFFFFBCA877666666666666665656565666566666666666666655565655565656566666665655554544444",
"11011111122334344555555555554432244444454545566766676766676766676779EDBAAADC756BFFFEC976676666566656665656665666666666676666565556555656565655553433454555454444",
"101111112233444454555555555454423444434454545676766676767676667678BC84889E83348A89ABEFD876666566666666656565656666667676766665656555545443334566899A944554545444",
"01011112233434444545454555555543344445454545566766676767676667677994476A952224545647877899765666665666566656566667677767666655443433343445468AABBBAA854655454544",
"10111122334344444444534454555553444454445454566666767676767676778854658642323333434333458A877666666666666665666676666564434344444556766565668ABABA98844565555454",
"111112123434454433332322233455543444444545455766666767676767677665443433332323332323233546678966566666566655555544444556776656555677677767668AABBBAA954656554544",
"111111224444545443333332323345664444444454546676767676767676765453323232323232222232233233346A76656565544343445578988788877665655677777776767BDDEFFFF55565555454",
"211112234545454544444433332346584434454545456767676767676767664433222222222322232322232222233576443434455667776779898888897777666678788777768FFFFFFFF75656554544",
"211112335454545444434334433344564444445454546676767676767676753332222222222222223232323222322355667777777777777788A9A9AAA99877777788888777779FFFFFFEB65565545454",
"221112344545554443343323444445344434454545456776676767676767642322222222232222222333333323233235777778787877777889ABBCBBBDA9888878898888666669877767676766554544",
"433122345454544443345433444453344444545454547676767676767676622222222222222222223333433332323233778787878777878789BCEEFFFFC9988776766565656676777787767666655444",
"44332344444545454544433434454433344445454545676767776767676753222222122222122323233434333333333368888888898889899BDFFFFFFE98665656565656566667787878776766554544",
"444344445444545454544343444543333234445554547676767776767676423222222222222222323343444343333443789898989888878889AA98878777766665656566666677778888877776655454",
"3434344444454545554444344445644323234555454567676777677767663322222222222222232333344445453435448989988877665666677888888877676656665656666778888888886766555545",
"4343444444445455545443434444743332335455545476667777767676753222222222222222323333445444544446657666656566667677778788888787766666666565667677889898977675655454",
"3434344444454555454544444445553323244555454544455777676767662322222222222222232334344445454546566656665666676778677888888878776666665656676778888989887766555545",
"4343444444445454545454544443564333345565545455545567777676743222222222222222334344444444544456666566656566667677868898999887777666666666667677889999988776655554",
"3434344444454545454545444445473433255655554566666545677767642322233433222222243444333323455547665656665666666778888889999988776766666666676778899A9A998877665545",
"4343444444445454545453544444566333356665545576777674457676743222234444322222334343433332334456656566656666667677888899A9A99887766676666666777899AAAAA98776655554",
"44344544444445454545454444455684333667665555778877675446676422222434343222233434444444332334466666565656666666777899ABABAA9987676666666667677889AAAAAA8877665555",
"434444444344445454545444545455743335776565557787766665667673322223444342223244444443333233344465666565666666667789AABBBBBAA987767676666666777899AAA9A99887656555",
"333445454444454545444434454555553336686655555666676767676664222224433334332444444444342323443356566656666666677889ABABBCBBA9887767676666676778899AAAAA8987665655",
"334444544444545454545443444444544336786565557676767676766664322223433244434444444444434333644565656565656666767789AABACCCBA987777676667676768899BBBBBAA997766555",
"333444443444454555454534333334433337786655566767676667666766222223443344443445454444343323334494665666666666677889ABBBBCBBAA8877676767676777789ABCCCBBA998676656",
"334344444444545554555454434343434347887665556666767666666665322123435454444444445454433333334584556666656666767788AABCCCCCBA987777767676777788AACCCBCAA997766665",
"333434344434444545454544444434343348786666566766666766666666222223344444444444444545443333344565565666566666676779ACCDDCCCBB9877677767777777899ABCBCBCAA99776756",
"333343434443444454545454545343434347887665656676667666666666322223434443444444444454544332334578656565666666766569BCDDEDDCCA988777767676778788AACCDCDCBBA8877666",
"333334333434444544444444454434343448887666566666666666665656332223343334344544454545554334344576565656576667677669BCCDDECDCB9878777777777878899CCDDEDDCCA9877766",
"323333434343444443334344455343434358987665666666666666666566522222444343444444445455544343334565656565666676777689BCDDEEEBDBA88787778777878888ABCCCBBBCCB9877676",
"33233334343434444433222324233434335888776656566666666656565655221234443444444445455544343335555656566666676777788ABDDFEEEDCCA988787877776766666ADEEFEEDDBA887777",
"323233334343434344433332222343434368987676656566656566666665853322334343445454445555434343566565656565666677778799BCEEFEFDCBA887766554435456756BFFFFFEEDC9888776",
"33232333343334344444333332233434346998776666566666666656565686553234343434454444455534344446665656565666676777788AACCCCBABAA6655555555444557666ADEEEDEDECA887877",
"3332333343433344444343333223434343789887766565666565656665687775433343433344434455544333435556656565666676777887768ACCEDEDEC8765656555556677889BEEFFFEEEDA988776",
"33332334343334344434333412233434347998777766565656565656677A9777443334443434343445443322245556565656666667777889999DDDDDCCBB887777787888898989ACEFFFFFEFDA887755",
"433222323333434344444341212343434388A887776565656566669CFFEA9776644344434343444454434332345555656565666676778789A8ABCCDDEEECB99998888887889899ABEEFFFEDCB7655443",
"343322233334343444444422122434343479987777666666678BFFFFCBB987776433344434343434444434333555555556666667677778899ABEFFFFFFFEBA9988777777777778799AABCFFFF8344434",
"434332323233434444444422213343334389A887767566BFFFFFFFFFF9A76776534334444343434344444444555555555566666676778799AACEFFFFFFFDB9877666655555545448FFFFFFFFFF544443",
"343434222323333434444512122434343489987877666FFFCCBBA9AEFE9856654643344444433434344444454545454555565656677778899BCEFFFFEECA76655545454445454537FFFFFFFFF8354434",
"434343432222333343444321113343434388A78777779BCA997678ABAAC65444644454445444434343444454544444445454545555657677768899AABCDC74555554545454555549FFFFFFFFFF745443",
"34343433237633233334321112243434448998787775997A9A89677879887446456744454444343334344444444434443434443444444555448FFFFFFFFE7556555545454545563BFFFFFFFFFF654544",
"3343434334CBB75333442421213343434388A887788877997899889896988533567664544444433343455443434343333233434333434455547BDDFFFFFFF6756554545454555547FFFFFFFFFF555444",
"23333333349CCCBBAAA62422123434343489987887586789988B88886679773467776445544445443445433333333333333333333444455654BFFFFFFFFFFF866655444445555636FFFFFFFFFF854544",
"133333332128BABAA9942222223343434498A8877475669BBABC97878667875476776554544454574233333333323333333333434344455565FFFFFFFFFFF8766554433344556545FFFFFFFFFFE55444",
"133334332112443434333333343334333489A88845655797678CA87778565756477776443334455C43333323333323333333333434344556659FFFFFFFFFF9676654455535555645FFFFFFFFFFF55544",
"113333432111133233323332323233434499A883466567577547A787776344454677766332435547A333323333333333333343434344546565DFFFFFFFFFFF976554665544556545FFFFFFFFFFF55444",
"01233433023112222212122212122223348998423655455775446778774434343477653323354337D533233333333333333334343444455665AFFFFFFFFFFF976645554544555645FFFFFFFFFFE55544",
"112333321123213221222221222222323499A8325554445684437777754445633456533333456367B8433333333333333333433343445465659FFFFFFFFFFF977654556544556554FFFFFFFFFFB45444",
"111333325113332333232323232323333789983355453446754467887434567534443333454475669A432333233323333333333434454556658FFFFFFFFFFF976754555535565645FFFFFFFFFFC45545",
"111233316111344242332232333233335788A54345534455764565775443768767744335635673787A733333333333333333434343445455648FFFFFFFFFFF977665334345556554FFFFFFFFFFF55454",
"010223348312233434342323332323346889A5433544354557465667654577785777455643353549BB943333333323333333333434454555557FFFFFFFFFFF876766554555565654FFFFFFFFFFF55545",
"1011223353135443435432323332334577888443445344433355656686577778778776664234446699D63332333333333333334343445555648FFFFFFFFFFF877666656555656664FFFFFFFFFFF55454",
"010112234324454435542323332333467888453345433324455666666757787788787766444698567BDB4333333323333333343434444556557FFFFFFFFFFF886766565666566764FFFFFFFFFFF55545",
"111011237443545253443233333333568784443354534343334566656756778687878776544699AAA9EC4333333333333333334343445455647FFFFFFFFFFF977776766676767773FFFFFFFFFFF55554",
"1111023563344543244423232323345778744434454334333545566655475887777778677545798BAACC9433333333333333333444444556557FFFFFFFFFFF887878787777777864EFFFFFFFFFF65655",
"1111104732334444423234433233446777525334544232445565446664465688447777757654E979A9ACB433333333333333333343444455647FFFFFFFFFFF988887888897878784CFFFFFFFFFF77788",
"1111112223233333434423553334465778334434342224455655533554444778576555445634EA8987696533333333333333333334444556656FFFFFFFFFFF9989899BBBA98889849FFFFFFFFFCA9999",
"11111112212110111144324553445577754333323232345565645553335367865454555466358775657A9743333333333333323343445465647FFFFFFFFFFFA99999ACCCC99999949FFFFFFFFDB99998",
"111111121101010112342235444446677434322334323445566445463323577765665544452557678647A733343333333323333334344558756FFFFFFFFFFF9AAA9ABEDEDBAAAAA58FFFFFFFFDAA9989",
"111111111111111122433234435465775333322332323455656445433442357765875444653557656578D743433333333233545333323346967FFFFFFFFFFF9BBBBBCDBCEBBABBB59FFFFFFFFDA99998",
"111111111111111112333334334556673333222224333445566535543424445756787755683667699878A7343333332333346532123523236E7FFFFFFFFFFF9CBCCCA63449BCCCB68FFFFFFFFC9A9989",
"11111020111111112233323343446676434331234453445565654464443344568777775568469B998887A8434333333332346421212322335D8FFFFFFFFFFFACDCDB522225CCDCC68FFFFFFFFAA99898",
"12111111111111121334322434244664343433234433344544342334554534567768675558479B9A88888D543333333333245412122323346F8FFFFFFFFFFF9DDEDC332227CDDDC77FFFFD45AA999988",
"1111102111111111223332234332457244434233434333323233323464566444776787546747A9A987878AA44333333333332222223232337F8FFFFFFFFFFF9DEEED4233358ACDD67FFFF635AAA99888",
"11111112121111122333332333233453233433233433222333242324545766456757875558479AA9967878763434343333232223233323467F7FFFFFFFFFFF8EDEEE432334335AC76FFFF6369A998988",
"11111122223121212233322243323343323332334342223233433333536676666666855467469999867545684343433332222122335754578994FFFFFFFFFF8CEDE8534342224AD76FFFF637AA989888",
"121111122323121223332323332323442322332434322334565644357567776667444444563579896535455574343332122222242435A8A77698FFFFFFFFFF7DDDD8743433234BC7488754389A998989",
"1121111222333221233333324332324342223323433233556566444477667776743343433433755654345767754333312121222443448CEC745BFFFFFFFFF86CDCCA855433335BC765765338A9988899",
"11121112232333222333333334322334341223232222245556564444786767776423343334246545544579868B4433221222232534346DFF7437BA876766765CCC97555533356BBAAA8843299A877988",
"1121111122223332223233323332223343322222222234556666545477867776523465534434655686758895BD84432121222234333347E76534B766778899ABC87554544455BBBBBAA7324998787444",
"11121111122223322323332233232323433212122223355666665444677657774445776567457A8BBA6758979EE533221222232534345688D646CAABABBBADBA97554445468BBBBBAA85224987754644",
"11111110212232333232333233323222433321222232345566766454678645765545776676648BBBCC7668A7ACEA6222212232237764534463658BBABABA42335454434448BDBAAAA984326787446321",
"11121111122212223323232223232223242322122333355667676445677843354535685767646CACDBA787979CCF7322221222243322232433375AAAAAAA322234444334489DBA978963244764342212",
"111121102121222333322232233222223343322232323465667664446677534335446756766449AACBB787989BCB93223221112121212236413548A9A9A9422223444244469FFB93BB43335632422121",
"1111121112232223233323232333221222332323233334443334333334344333353557476765268ABDB9899A9BB88522222111011112234633264666554432232344333448ACFD96FF32246425443212",
"111111211121212122333222223221212233322232322244545564435565654233345756766534989877568899757A42322111111111112343323222322222212243433457BAEFB98521464265765555",
"1111111112125312222432122223221222243322233324555545443435555644332446456654225556589869854458A3221111111112111222222222222222121234443326999BA84412453454555654",
"211111111123862121224322212231222222422232323333434443433443444453223333454332567759A787744576743111111111111121212222222222212121334432346665454322633532444333",
"121112121212772211122432121223232223232223232456677876454777666444234665564432374769BB886436668721121211111111121212122222221212121345332335358A5325435522465445",
"2111111111223221212122432122333222222221323235777787865457767674633455764543324877B88788635566B62121212122211121212122212122212121212221212367864245665335556555",
"1211111101111212221212243222232222121212122235677777774547776766633556676556435A779AAB9765445AA52222121223121212121212121222121212121112122359322355575345545555",
"21211111112121211121112244222121212121212223457787777554567676776344556775654468A77BAAD764436653212121212121112121212121222221212121212369DDEA332376555277645443",
"12121111011222111212121234421211121212121233367877776544566767675445566765564469A758AAA965357653111111121211121212121222121212121212125889AB95221677652366555544",
"11212111111121222121212133333111211121111133457787777444667676665244557756654479A755B9976454446621212111212121212121212121222121212268A9999896534686522454433344",
"12121111011111121211121223233311121112111224457877777545687777664325566666564469BC755675766567673211111112121212121212121222122336AFFFFF889A99998876322633212543",
"11112111101121111111212122223331211111111123457776777554678776755533545475655369BA95456465547788422121112121212111212121222369FFFFFFFFD9688999999774446532211333",
"121212111112121212111212222333331111110112233556454544333545554435233445556543377656444546599767553212121212122212121212126CDCA9ADBBA899777989997657677443122223",
"21212121111121212111212122223233311111111122324343434433334444556432235465433234665676555896545ACBDB522122212121212121222244569DECBA9596777666778777877651223221",
"221212121112111212111112221223232212111112122334344444333445678985222235664323246A888876574324478CFE9212121212222332222434567EFFCBA96633455458898867654322122211",
"22222221111111111111112121222222221110112121224455656665557899A96332223564534445ADD8889674324456DFFCC94226BDA421222222333237FFFBA899A876667666666443333222333343",
"122222121111111211111211121322221112111212122258899989986668998853232334445555436BCB777695235447AB9FFFDCBFFFFB841212222323CFFFA6444667767878899A9877654314555655",
"1122322221112232212111111122222211211011111123578899999976668777623343335464645458CC867795346458A569ABFFDAA86585732232336FFFFC6333334355678889AABA86755222225688",
"11122322221112122222111111122222111211110111243677788889765567665334432345654545369BA7576536567844877EF8787669BEDA899AAADFFFD744232223456878899BCB97354556478BBB",
"112122322221122221112111111122221011111011112344667688999554544443345543456455554479A854535566654567CB987798A7AECCFFFFFE8358864322212234678899AACCA53459DBCCBAA8",
} ;
